%TF.GenerationSoftware,KiCad,Pcbnew,9.0.0*%
%TF.CreationDate,2025-10-06T21:58:36+02:00*%
%TF.ProjectId,stm32_radio,73746d33-325f-4726-9164-696f2e6b6963,rev?*%
%TF.SameCoordinates,Original*%
%TF.FileFunction,Copper,L2,Bot*%
%TF.FilePolarity,Positive*%
%FSLAX46Y46*%
G04 Gerber Fmt 4.6, Leading zero omitted, Abs format (unit mm)*
G04 Created by KiCad (PCBNEW 9.0.0) date 2025-10-06 21:58:36*
%MOMM*%
%LPD*%
G01*
G04 APERTURE LIST*
G04 Aperture macros list*
%AMRoundRect*
0 Rectangle with rounded corners*
0 $1 Rounding radius*
0 $2 $3 $4 $5 $6 $7 $8 $9 X,Y pos of 4 corners*
0 Add a 4 corners polygon primitive as box body*
4,1,4,$2,$3,$4,$5,$6,$7,$8,$9,$2,$3,0*
0 Add four circle primitives for the rounded corners*
1,1,$1+$1,$2,$3*
1,1,$1+$1,$4,$5*
1,1,$1+$1,$6,$7*
1,1,$1+$1,$8,$9*
0 Add four rect primitives between the rounded corners*
20,1,$1+$1,$2,$3,$4,$5,0*
20,1,$1+$1,$4,$5,$6,$7,0*
20,1,$1+$1,$6,$7,$8,$9,0*
20,1,$1+$1,$8,$9,$2,$3,0*%
G04 Aperture macros list end*
%TA.AperFunction,SMDPad,CuDef*%
%ADD10RoundRect,0.250000X-0.425000X-1.600000X0.425000X-1.600000X0.425000X1.600000X-0.425000X1.600000X0*%
%TD*%
%TA.AperFunction,SMDPad,CuDef*%
%ADD11RoundRect,0.250000X-1.600000X0.425000X-1.600000X-0.425000X1.600000X-0.425000X1.600000X0.425000X0*%
%TD*%
%TA.AperFunction,ComponentPad*%
%ADD12R,1.700000X1.700000*%
%TD*%
%TA.AperFunction,ComponentPad*%
%ADD13O,1.700000X1.700000*%
%TD*%
%TA.AperFunction,ComponentPad*%
%ADD14RoundRect,0.250000X-0.600000X-0.600000X0.600000X-0.600000X0.600000X0.600000X-0.600000X0.600000X0*%
%TD*%
%TA.AperFunction,ComponentPad*%
%ADD15C,1.700000*%
%TD*%
%TA.AperFunction,SMDPad,CuDef*%
%ADD16RoundRect,0.250000X0.425000X1.600000X-0.425000X1.600000X-0.425000X-1.600000X0.425000X-1.600000X0*%
%TD*%
%TA.AperFunction,SMDPad,CuDef*%
%ADD17RoundRect,0.250000X0.475000X-0.250000X0.475000X0.250000X-0.475000X0.250000X-0.475000X-0.250000X0*%
%TD*%
%TA.AperFunction,ViaPad*%
%ADD18C,0.600000*%
%TD*%
%TA.AperFunction,Conductor*%
%ADD19C,0.508000*%
%TD*%
%TA.AperFunction,Conductor*%
%ADD20C,0.254000*%
%TD*%
%TA.AperFunction,Conductor*%
%ADD21C,0.381000*%
%TD*%
G04 APERTURE END LIST*
D10*
%TO.P,J5,2,Ext*%
%TO.N,GND*%
X181387000Y-130215500D03*
X175737000Y-130215500D03*
%TD*%
D11*
%TO.P,J4,2,Ext*%
%TO.N,GND*%
X116672500Y-120681000D03*
X116672500Y-115031000D03*
%TD*%
D12*
%TO.P,J3,1,Pin_1*%
%TO.N,GND*%
X118364000Y-87884000D03*
D13*
%TO.P,J3,2,Pin_2*%
%TO.N,/Radio MCU/SWCLK*%
X118364000Y-85344000D03*
%TO.P,J3,3,Pin_3*%
%TO.N,/Radio MCU/SWDIO*%
X118364000Y-82804000D03*
%TD*%
D14*
%TO.P,B1,1,GND*%
%TO.N,GND*%
X198374000Y-82296000D03*
D15*
%TO.P,B1,2,GND*%
X200914000Y-82296000D03*
%TO.P,B1,3,GND*%
X198374000Y-84836000D03*
%TO.P,B1,4,GND*%
X200914000Y-84836000D03*
%TO.P,B1,5,Reg_bus_3v3*%
%TO.N,/Radio MCU/3V3*%
X198374000Y-87376000D03*
%TO.P,B1,6,Reg_bus_3v3*%
X200914000Y-87376000D03*
%TO.P,B1,7,Unreg_bus*%
%TO.N,/Radio MCU/VBAT*%
X198374000Y-89916000D03*
%TO.P,B1,8,Unreg_bus*%
X200914000Y-89916000D03*
%TO.P,B1,9,Perif1_EN*%
%TO.N,unconnected-(B1-Perif1_EN-Pad9)*%
X198374000Y-92456000D03*
%TO.P,B1,10,Perfi1_Data*%
%TO.N,unconnected-(B1-Perfi1_Data-Pad10)*%
X200914000Y-92456000D03*
%TO.P,B1,11,Perif1_Fault*%
%TO.N,unconnected-(B1-Perif1_Fault-Pad11)*%
X198374000Y-94996000D03*
%TO.P,B1,12,Perif1_AUX*%
%TO.N,unconnected-(B1-Perif1_AUX-Pad12)*%
X200914000Y-94996000D03*
%TO.P,B1,13,Perif2_EN*%
%TO.N,unconnected-(B1-Perif2_EN-Pad13)*%
X198374000Y-97536000D03*
%TO.P,B1,14,Perfi2_Data*%
%TO.N,unconnected-(B1-Perfi2_Data-Pad14)*%
X200914000Y-97536000D03*
%TO.P,B1,15,Perif2_Fault*%
%TO.N,unconnected-(B1-Perif2_Fault-Pad15)*%
X198374000Y-100076000D03*
%TO.P,B1,16,Perif2_AUX*%
%TO.N,unconnected-(B1-Perif2_AUX-Pad16)*%
X200914000Y-100076000D03*
%TO.P,B1,17,Perif3_EN*%
%TO.N,unconnected-(B1-Perif3_EN-Pad17)*%
X198374000Y-102616000D03*
%TO.P,B1,18,Perfi3_Data*%
%TO.N,unconnected-(B1-Perfi3_Data-Pad18)*%
X200914000Y-102616000D03*
%TO.P,B1,19,Perif3_Fault*%
%TO.N,unconnected-(B1-Perif3_Fault-Pad19)*%
X198374000Y-105156000D03*
%TO.P,B1,20,Perif3_AUX*%
%TO.N,unconnected-(B1-Perif3_AUX-Pad20)*%
X200914000Y-105156000D03*
%TO.P,B1,21,Perif4_EN*%
%TO.N,unconnected-(B1-Perif4_EN-Pad21)*%
X198374000Y-107696000D03*
%TO.P,B1,22,Perfi4_Data*%
%TO.N,unconnected-(B1-Perfi4_Data-Pad22)*%
X200914000Y-107696000D03*
%TO.P,B1,23,Perif4_Fault*%
%TO.N,unconnected-(B1-Perif4_Fault-Pad23)*%
X198374000Y-110236000D03*
%TO.P,B1,24,Perif4_AUX*%
%TO.N,unconnected-(B1-Perif4_AUX-Pad24)*%
X200914000Y-110236000D03*
%TO.P,B1,25,COM_EN*%
%TO.N,/Power EN*%
X198374000Y-112776000D03*
%TO.P,B1,26,COM_Data*%
%TO.N,/Radio MCU/UART*%
X200914000Y-112776000D03*
%TO.P,B1,27,COM_Fault*%
%TO.N,/nFAULT*%
X198374000Y-115316000D03*
%TO.P,B1,28,COM_AUX*%
%TO.N,unconnected-(B1-COM_AUX-Pad28)*%
X200914000Y-115316000D03*
%TO.P,B1,29,AUX1*%
%TO.N,unconnected-(B1-AUX1-Pad29)*%
X198374000Y-117856000D03*
%TO.P,B1,30,AUX2*%
%TO.N,unconnected-(B1-AUX2-Pad30)*%
X200914000Y-117856000D03*
%TO.P,B1,31,AUX3*%
%TO.N,unconnected-(B1-AUX3-Pad31)*%
X198374000Y-120396000D03*
%TO.P,B1,32,AUX4*%
%TO.N,unconnected-(B1-AUX4-Pad32)*%
X200914000Y-120396000D03*
%TO.P,B1,33,GND*%
%TO.N,GND*%
X198374000Y-122936000D03*
%TO.P,B1,34,GND*%
X200914000Y-122936000D03*
%TD*%
D16*
%TO.P,J2,2,Ext*%
%TO.N,GND*%
X141955000Y-53172500D03*
X147605000Y-53172500D03*
%TD*%
D17*
%TO.P,C3,1*%
%TO.N,/Radio MCU/3V3*%
X145045750Y-85720000D03*
%TO.P,C3,2*%
%TO.N,GND*%
X145045750Y-83820000D03*
%TD*%
%TO.P,C4,1*%
%TO.N,/Radio MCU/3V3*%
X142035750Y-85720000D03*
%TO.P,C4,2*%
%TO.N,GND*%
X142035750Y-83820000D03*
%TD*%
D18*
%TO.N,/Radio MCU/3V3*%
X130810000Y-75438000D03*
X133604000Y-84713000D03*
X133592000Y-85967000D03*
X142999000Y-91945000D03*
X133350000Y-82296000D03*
X141482775Y-80707512D03*
X139852167Y-79621000D03*
X170688000Y-93980000D03*
X149860000Y-85852000D03*
%TO.N,GND*%
X144272000Y-64516000D03*
X151638000Y-59182000D03*
X144018000Y-87884000D03*
X154178000Y-73660000D03*
X134366000Y-77978000D03*
X149860000Y-65278000D03*
X140208000Y-84836000D03*
X139446000Y-93980000D03*
X140208000Y-82296000D03*
X145796000Y-59944000D03*
X143256000Y-59436000D03*
X148590000Y-78994000D03*
X146050000Y-82296000D03*
X133096000Y-87122000D03*
X159258000Y-70104000D03*
X130810000Y-62992000D03*
X136578840Y-85524840D03*
X156972000Y-62992000D03*
X139700000Y-73660000D03*
X122682000Y-93980000D03*
X136144000Y-60198000D03*
X151130000Y-76962000D03*
X145288000Y-94234000D03*
X141224000Y-67310000D03*
X152908000Y-68072000D03*
X148590000Y-74676000D03*
X151892000Y-71882000D03*
X133096000Y-94234000D03*
X130556000Y-68834000D03*
X143764000Y-72644000D03*
X130302000Y-84328000D03*
X137922000Y-75692000D03*
X144018000Y-76962000D03*
X127000000Y-93980000D03*
%TO.N,/Radio MCU/1V5*%
X132080000Y-86868000D03*
X138428413Y-79717758D03*
%TO.N,/Radio MCU/UART2_RX*%
X151765000Y-91567000D03*
X140265687Y-90366313D03*
%TO.N,/Radio MCU/UART2_TX*%
X139700000Y-90932000D03*
X151384000Y-93218000D03*
%TO.N,Net-(U1-OSC_IN)*%
X131318000Y-77216000D03*
X137922000Y-78740000D03*
%TO.N,/Radio MCU/RF out/TX_EN*%
X126746000Y-70358000D03*
X125659021Y-66988181D03*
%TO.N,Net-(U1-PA5)*%
X156972000Y-87376000D03*
X146050000Y-87122000D03*
%TO.N,Net-(Q4-E)*%
X157480000Y-88900000D03*
X135382000Y-88900000D03*
%TD*%
D19*
%TO.N,/Radio MCU/3V3*%
X145045750Y-85807500D02*
X142035750Y-85807500D01*
X149860000Y-85852000D02*
X145177750Y-85852000D01*
X139760682Y-79621000D02*
X138938000Y-80443682D01*
D20*
X139852167Y-80220483D02*
X140403684Y-80772000D01*
D19*
X138938000Y-87884000D02*
X138938000Y-83820000D01*
X198374000Y-87376000D02*
X177292000Y-87376000D01*
X177292000Y-87376000D02*
X170688000Y-93980000D01*
X138938000Y-83820000D02*
X134874000Y-83820000D01*
X134497000Y-83820000D02*
X133604000Y-84713000D01*
X142999000Y-91945000D02*
X138938000Y-87884000D01*
X142035750Y-85807500D02*
X139025750Y-85807500D01*
X138938000Y-80443682D02*
X138938000Y-83820000D01*
D20*
X141418287Y-80772000D02*
X141482775Y-80707512D01*
X139852167Y-79621000D02*
X139852167Y-80220483D01*
X140403684Y-80772000D02*
X141418287Y-80772000D01*
D21*
X135669167Y-75438000D02*
X139852167Y-79621000D01*
D19*
X145177750Y-85852000D02*
X145045750Y-85720000D01*
X139852167Y-79621000D02*
X139760682Y-79621000D01*
X134874000Y-83820000D02*
X134497000Y-83820000D01*
X134874000Y-83820000D02*
X134874000Y-84685000D01*
X134874000Y-84685000D02*
X133592000Y-85967000D01*
X134874000Y-83820000D02*
X133350000Y-82296000D01*
D21*
X130810000Y-75438000D02*
X135669167Y-75438000D01*
D19*
X200914000Y-87376000D02*
X198374000Y-87376000D01*
D20*
%TO.N,/Radio MCU/1V5*%
X138428413Y-79717758D02*
X135040115Y-79717758D01*
X135040115Y-79717758D02*
X131572000Y-83185873D01*
X131572000Y-83185873D02*
X131572000Y-85344000D01*
X131572000Y-86360000D02*
X132080000Y-86868000D01*
X131572000Y-85344000D02*
X131572000Y-86360000D01*
%TO.N,/Radio MCU/UART2_RX*%
X142863374Y-92964000D02*
X140265687Y-90366313D01*
X151765000Y-91567000D02*
X150368000Y-92964000D01*
X150368000Y-92964000D02*
X142863374Y-92964000D01*
%TO.N,/Radio MCU/UART2_TX*%
X151130000Y-93472000D02*
X151384000Y-93218000D01*
X149606000Y-93472000D02*
X151130000Y-93472000D01*
X142240000Y-93472000D02*
X149606000Y-93472000D01*
X139700000Y-90932000D02*
X142240000Y-93472000D01*
%TO.N,Net-(U1-OSC_IN)*%
X132842000Y-78740000D02*
X131318000Y-77216000D01*
X137922000Y-78740000D02*
X132842000Y-78740000D01*
%TO.N,/Radio MCU/RF out/TX_EN*%
X126746000Y-70358000D02*
X126746000Y-68075160D01*
X126746000Y-68075160D02*
X125659021Y-66988181D01*
%TO.N,Net-(U1-PA5)*%
X156972000Y-87376000D02*
X156718000Y-87122000D01*
X156718000Y-87122000D02*
X146050000Y-87122000D01*
%TO.N,Net-(Q4-E)*%
X135382000Y-88900000D02*
X141344000Y-94862000D01*
X156972000Y-88900000D02*
X157480000Y-88900000D01*
X151010000Y-94862000D02*
X156972000Y-88900000D01*
X141344000Y-94862000D02*
X151010000Y-94862000D01*
%TD*%
%TA.AperFunction,Conductor*%
%TO.N,GND*%
G36*
X200448075Y-85028993D02*
G01*
X200513901Y-85143007D01*
X200606993Y-85236099D01*
X200721007Y-85301925D01*
X200784590Y-85318962D01*
X200152282Y-85951269D01*
X200206446Y-85990622D01*
X200395778Y-86087092D01*
X200395787Y-86087096D01*
X200482739Y-86115348D01*
X200541345Y-86155421D01*
X200568983Y-86220817D01*
X200556877Y-86290774D01*
X200508871Y-86343081D01*
X200492033Y-86351585D01*
X200490030Y-86352414D01*
X200335112Y-86431349D01*
X200194464Y-86533536D01*
X200071536Y-86656464D01*
X199969347Y-86797115D01*
X199969343Y-86797122D01*
X199968535Y-86798708D01*
X199968068Y-86799201D01*
X199966759Y-86801339D01*
X199966309Y-86801063D01*
X199919784Y-86850321D01*
X199856271Y-86867500D01*
X199431729Y-86867500D01*
X199363608Y-86847498D01*
X199321629Y-86801100D01*
X199321241Y-86801339D01*
X199319972Y-86799268D01*
X199319465Y-86798708D01*
X199318656Y-86797122D01*
X199318652Y-86797115D01*
X199317115Y-86795000D01*
X199216465Y-86656467D01*
X199216463Y-86656464D01*
X199093535Y-86533536D01*
X198952887Y-86431349D01*
X198952886Y-86431348D01*
X198952884Y-86431347D01*
X198797981Y-86352420D01*
X198797978Y-86352419D01*
X198795972Y-86351588D01*
X198795327Y-86351068D01*
X198793570Y-86350173D01*
X198793758Y-86349803D01*
X198740693Y-86307038D01*
X198718275Y-86239673D01*
X198735836Y-86170883D01*
X198787800Y-86122506D01*
X198805260Y-86115347D01*
X198892222Y-86087092D01*
X199081555Y-85990621D01*
X199081557Y-85990620D01*
X199135716Y-85951270D01*
X199135717Y-85951269D01*
X198503410Y-85318962D01*
X198566993Y-85301925D01*
X198681007Y-85236099D01*
X198774099Y-85143007D01*
X198839925Y-85028993D01*
X198856962Y-84965410D01*
X199489269Y-85597717D01*
X199489270Y-85597716D01*
X199528620Y-85543557D01*
X199528621Y-85543556D01*
X199531732Y-85537451D01*
X199580480Y-85485835D01*
X199649395Y-85468768D01*
X199716596Y-85491668D01*
X199756268Y-85537451D01*
X199759377Y-85543553D01*
X199798729Y-85597716D01*
X199798730Y-85597716D01*
X200431037Y-84965409D01*
X200448075Y-85028993D01*
G37*
%TD.AperFunction*%
%TA.AperFunction,Conductor*%
G36*
X200448075Y-82488993D02*
G01*
X200513901Y-82603007D01*
X200606993Y-82696099D01*
X200721007Y-82761925D01*
X200784590Y-82778962D01*
X200183756Y-83379795D01*
X200260647Y-83496805D01*
X200281340Y-83564718D01*
X200262032Y-83633039D01*
X200212553Y-83678265D01*
X200206453Y-83681373D01*
X200206446Y-83681377D01*
X200152282Y-83720729D01*
X200784591Y-84353037D01*
X200721007Y-84370075D01*
X200606993Y-84435901D01*
X200513901Y-84528993D01*
X200448075Y-84643007D01*
X200431037Y-84706590D01*
X199798729Y-84074282D01*
X199759377Y-84128446D01*
X199759373Y-84128453D01*
X199756265Y-84134553D01*
X199707516Y-84186167D01*
X199638601Y-84203231D01*
X199571400Y-84180328D01*
X199531735Y-84134553D01*
X199528624Y-84128449D01*
X199489269Y-84074282D01*
X198856962Y-84706589D01*
X198839925Y-84643007D01*
X198774099Y-84528993D01*
X198681007Y-84435901D01*
X198566993Y-84370075D01*
X198503409Y-84353037D01*
X199140271Y-83716175D01*
X199151293Y-83663712D01*
X199201135Y-83613152D01*
X199222677Y-83603700D01*
X199293121Y-83580357D01*
X199442344Y-83488316D01*
X199442350Y-83488311D01*
X199566311Y-83364350D01*
X199566318Y-83364341D01*
X199604367Y-83302653D01*
X199687808Y-83129588D01*
X199706361Y-83109057D01*
X199722114Y-83086305D01*
X199729816Y-83083102D01*
X199735409Y-83076914D01*
X199762118Y-83069672D01*
X199787670Y-83059049D01*
X199797545Y-83058901D01*
X200431037Y-82425409D01*
X200448075Y-82488993D01*
G37*
%TD.AperFunction*%
%TA.AperFunction,Conductor*%
G36*
X140678102Y-51304889D02*
G01*
X140693669Y-51304251D01*
X140711472Y-51314687D01*
X140731275Y-51320502D01*
X140741477Y-51332276D01*
X140754918Y-51340155D01*
X140764253Y-51358561D01*
X140777768Y-51374158D01*
X140780464Y-51390523D01*
X140787032Y-51403473D01*
X140788501Y-51439305D01*
X140788501Y-51439307D01*
X140780000Y-51522512D01*
X140780000Y-52922500D01*
X143129999Y-52922500D01*
X143129999Y-51522521D01*
X143121498Y-51439305D01*
X143134474Y-51369504D01*
X143183127Y-51317799D01*
X143246846Y-51300500D01*
X146313154Y-51300500D01*
X146381275Y-51320502D01*
X146427768Y-51374158D01*
X146438501Y-51439307D01*
X146430000Y-51522512D01*
X146430000Y-52922500D01*
X148779999Y-52922500D01*
X148779999Y-51522521D01*
X148771498Y-51439305D01*
X148784474Y-51369504D01*
X148833127Y-51317799D01*
X148896846Y-51300500D01*
X202573500Y-51300500D01*
X202641621Y-51320502D01*
X202688114Y-51374158D01*
X202699500Y-51426500D01*
X202699500Y-132723500D01*
X202679498Y-132791621D01*
X202625842Y-132838114D01*
X202573500Y-132849500D01*
X114926500Y-132849500D01*
X114858379Y-132829498D01*
X114811886Y-132775842D01*
X114800500Y-132723500D01*
X114800500Y-131865478D01*
X174562001Y-131865478D01*
X174572493Y-131968191D01*
X174627642Y-132134622D01*
X174719683Y-132283844D01*
X174719688Y-132283850D01*
X174843649Y-132407811D01*
X174843655Y-132407816D01*
X174992877Y-132499857D01*
X175159308Y-132555006D01*
X175262012Y-132565499D01*
X175487000Y-132565499D01*
X175987000Y-132565499D01*
X176211978Y-132565499D01*
X176314691Y-132555006D01*
X176481122Y-132499857D01*
X176630344Y-132407816D01*
X176630350Y-132407811D01*
X176754311Y-132283850D01*
X176754316Y-132283844D01*
X176846357Y-132134622D01*
X176901506Y-131968191D01*
X176911999Y-131865487D01*
X176912000Y-131865487D01*
X176912000Y-131865478D01*
X180212001Y-131865478D01*
X180222493Y-131968191D01*
X180277642Y-132134622D01*
X180369683Y-132283844D01*
X180369688Y-132283850D01*
X180493649Y-132407811D01*
X180493655Y-132407816D01*
X180642877Y-132499857D01*
X180809308Y-132555006D01*
X180912012Y-132565499D01*
X181137000Y-132565499D01*
X181637000Y-132565499D01*
X181861978Y-132565499D01*
X181964691Y-132555006D01*
X182131122Y-132499857D01*
X182280344Y-132407816D01*
X182280350Y-132407811D01*
X182404311Y-132283850D01*
X182404316Y-132283844D01*
X182496357Y-132134622D01*
X182551506Y-131968191D01*
X182561999Y-131865487D01*
X182562000Y-131865487D01*
X182562000Y-130465500D01*
X181637000Y-130465500D01*
X181637000Y-132565499D01*
X181137000Y-132565499D01*
X181137000Y-130465500D01*
X180212001Y-130465500D01*
X180212001Y-131865478D01*
X176912000Y-131865478D01*
X176912000Y-130465500D01*
X175987000Y-130465500D01*
X175987000Y-132565499D01*
X175487000Y-132565499D01*
X175487000Y-130465500D01*
X174562001Y-130465500D01*
X174562001Y-131865478D01*
X114800500Y-131865478D01*
X114800500Y-128565512D01*
X174562000Y-128565512D01*
X174562000Y-129965500D01*
X175487000Y-129965500D01*
X175987000Y-129965500D01*
X176911999Y-129965500D01*
X176911999Y-128565521D01*
X176911998Y-128565512D01*
X180212000Y-128565512D01*
X180212000Y-129965500D01*
X181137000Y-129965500D01*
X181637000Y-129965500D01*
X182561999Y-129965500D01*
X182561999Y-128565521D01*
X182551506Y-128462808D01*
X182496357Y-128296377D01*
X182404316Y-128147155D01*
X182404311Y-128147149D01*
X182280350Y-128023188D01*
X182280344Y-128023183D01*
X182131122Y-127931142D01*
X181964691Y-127875993D01*
X181861987Y-127865500D01*
X181637000Y-127865500D01*
X181637000Y-129965500D01*
X181137000Y-129965500D01*
X181137000Y-127865500D01*
X180912021Y-127865500D01*
X180809308Y-127875993D01*
X180642877Y-127931142D01*
X180493655Y-128023183D01*
X180493649Y-128023188D01*
X180369688Y-128147149D01*
X180369683Y-128147155D01*
X180277642Y-128296377D01*
X180222493Y-128462808D01*
X180212000Y-128565512D01*
X176911998Y-128565512D01*
X176901506Y-128462808D01*
X176846357Y-128296377D01*
X176754316Y-128147155D01*
X176754311Y-128147149D01*
X176630350Y-128023188D01*
X176630344Y-128023183D01*
X176481122Y-127931142D01*
X176314691Y-127875993D01*
X176211987Y-127865500D01*
X175987000Y-127865500D01*
X175987000Y-129965500D01*
X175487000Y-129965500D01*
X175487000Y-127865500D01*
X175262021Y-127865500D01*
X175159308Y-127875993D01*
X174992877Y-127931142D01*
X174843655Y-128023183D01*
X174843649Y-128023188D01*
X174719688Y-128147149D01*
X174719683Y-128147155D01*
X174627642Y-128296377D01*
X174572493Y-128462808D01*
X174562000Y-128565512D01*
X114800500Y-128565512D01*
X114800500Y-122829756D01*
X197024000Y-122829756D01*
X197024000Y-123042243D01*
X197057243Y-123252131D01*
X197122904Y-123454215D01*
X197122907Y-123454221D01*
X197219377Y-123643553D01*
X197258729Y-123697716D01*
X197258730Y-123697716D01*
X197891037Y-123065409D01*
X197908075Y-123128993D01*
X197973901Y-123243007D01*
X198066993Y-123336099D01*
X198181007Y-123401925D01*
X198244590Y-123418962D01*
X197612282Y-124051269D01*
X197666446Y-124090622D01*
X197855778Y-124187092D01*
X197855784Y-124187095D01*
X198057870Y-124252756D01*
X198057866Y-124252756D01*
X198267756Y-124286000D01*
X198480244Y-124286000D01*
X198690131Y-124252756D01*
X198892215Y-124187095D01*
X198892221Y-124187092D01*
X199081555Y-124090621D01*
X199081557Y-124090620D01*
X199135716Y-124051270D01*
X199135717Y-124051269D01*
X198503410Y-123418962D01*
X198566993Y-123401925D01*
X198681007Y-123336099D01*
X198774099Y-123243007D01*
X198839925Y-123128993D01*
X198856962Y-123065410D01*
X199489269Y-123697717D01*
X199489270Y-123697716D01*
X199528620Y-123643557D01*
X199528621Y-123643556D01*
X199531732Y-123637451D01*
X199580480Y-123585835D01*
X199649395Y-123568768D01*
X199716596Y-123591668D01*
X199756268Y-123637451D01*
X199759377Y-123643553D01*
X199798729Y-123697716D01*
X199798730Y-123697716D01*
X200431037Y-123065409D01*
X200448075Y-123128993D01*
X200513901Y-123243007D01*
X200606993Y-123336099D01*
X200721007Y-123401925D01*
X200784590Y-123418962D01*
X200152282Y-124051269D01*
X200206446Y-124090622D01*
X200395778Y-124187092D01*
X200395784Y-124187095D01*
X200597870Y-124252756D01*
X200597866Y-124252756D01*
X200807756Y-124286000D01*
X201020244Y-124286000D01*
X201230131Y-124252756D01*
X201432215Y-124187095D01*
X201432221Y-124187092D01*
X201621555Y-124090621D01*
X201621557Y-124090620D01*
X201675716Y-124051270D01*
X201675717Y-124051269D01*
X201043410Y-123418962D01*
X201106993Y-123401925D01*
X201221007Y-123336099D01*
X201314099Y-123243007D01*
X201379925Y-123128993D01*
X201396962Y-123065410D01*
X202029269Y-123697717D01*
X202029270Y-123697716D01*
X202068620Y-123643557D01*
X202068621Y-123643555D01*
X202165092Y-123454221D01*
X202165095Y-123454215D01*
X202230756Y-123252131D01*
X202264000Y-123042243D01*
X202264000Y-122829756D01*
X202230756Y-122619868D01*
X202165095Y-122417784D01*
X202165092Y-122417778D01*
X202068622Y-122228446D01*
X202029269Y-122174282D01*
X201396962Y-122806589D01*
X201379925Y-122743007D01*
X201314099Y-122628993D01*
X201221007Y-122535901D01*
X201106993Y-122470075D01*
X201043409Y-122453037D01*
X201675716Y-121820730D01*
X201675716Y-121820729D01*
X201621553Y-121781377D01*
X201432221Y-121684907D01*
X201432215Y-121684904D01*
X201345259Y-121656651D01*
X201286653Y-121616578D01*
X201259016Y-121551181D01*
X201271123Y-121481224D01*
X201319129Y-121428918D01*
X201335987Y-121420405D01*
X201337967Y-121419584D01*
X201337981Y-121419580D01*
X201492884Y-121340653D01*
X201633533Y-121238465D01*
X201756465Y-121115533D01*
X201858653Y-120974884D01*
X201937580Y-120819981D01*
X201991303Y-120654638D01*
X202018500Y-120482926D01*
X202018500Y-120309074D01*
X201991303Y-120137362D01*
X201937580Y-119972019D01*
X201858653Y-119817116D01*
X201756465Y-119676467D01*
X201756463Y-119676464D01*
X201633535Y-119553536D01*
X201492887Y-119451349D01*
X201492886Y-119451348D01*
X201492884Y-119451347D01*
X201337981Y-119372420D01*
X201337978Y-119372419D01*
X201337976Y-119372418D01*
X201172642Y-119318698D01*
X201172640Y-119318697D01*
X201172638Y-119318697D01*
X201000926Y-119291500D01*
X200827074Y-119291500D01*
X200655362Y-119318697D01*
X200655360Y-119318697D01*
X200655357Y-119318698D01*
X200490023Y-119372418D01*
X200490017Y-119372421D01*
X200335112Y-119451349D01*
X200194464Y-119553536D01*
X200071536Y-119676464D01*
X199969349Y-119817112D01*
X199890421Y-119972017D01*
X199890418Y-119972023D01*
X199836698Y-120137357D01*
X199836697Y-120137360D01*
X199836697Y-120137362D01*
X199809500Y-120309074D01*
X199809500Y-120482926D01*
X199836697Y-120654638D01*
X199890420Y-120819981D01*
X199890421Y-120819982D01*
X199969349Y-120974887D01*
X200071536Y-121115535D01*
X200194464Y-121238463D01*
X200286859Y-121305592D01*
X200335116Y-121340653D01*
X200490019Y-121419580D01*
X200490029Y-121419583D01*
X200492018Y-121420407D01*
X200492662Y-121420926D01*
X200494430Y-121421827D01*
X200494240Y-121422198D01*
X200547300Y-121464954D01*
X200569724Y-121532316D01*
X200552168Y-121601108D01*
X200500208Y-121649488D01*
X200482740Y-121656651D01*
X200395784Y-121684904D01*
X200395778Y-121684907D01*
X200206447Y-121781376D01*
X200206446Y-121781377D01*
X200152282Y-121820729D01*
X200784591Y-122453037D01*
X200721007Y-122470075D01*
X200606993Y-122535901D01*
X200513901Y-122628993D01*
X200448075Y-122743007D01*
X200431037Y-122806590D01*
X199798729Y-122174282D01*
X199759377Y-122228446D01*
X199759373Y-122228453D01*
X199756265Y-122234553D01*
X199707516Y-122286167D01*
X199638601Y-122303231D01*
X199571400Y-122280328D01*
X199531735Y-122234553D01*
X199528624Y-122228449D01*
X199489269Y-122174282D01*
X198856962Y-122806589D01*
X198839925Y-122743007D01*
X198774099Y-122628993D01*
X198681007Y-122535901D01*
X198566993Y-122470075D01*
X198503409Y-122453037D01*
X199135716Y-121820730D01*
X199135716Y-121820729D01*
X199081553Y-121781377D01*
X198892221Y-121684907D01*
X198892215Y-121684904D01*
X198805259Y-121656651D01*
X198746653Y-121616578D01*
X198719016Y-121551181D01*
X198731123Y-121481224D01*
X198779129Y-121428918D01*
X198795987Y-121420405D01*
X198797967Y-121419584D01*
X198797981Y-121419580D01*
X198952884Y-121340653D01*
X199093533Y-121238465D01*
X199216465Y-121115533D01*
X199318653Y-120974884D01*
X199397580Y-120819981D01*
X199451303Y-120654638D01*
X199478500Y-120482926D01*
X199478500Y-120309074D01*
X199451303Y-120137362D01*
X199397580Y-119972019D01*
X199318653Y-119817116D01*
X199216465Y-119676467D01*
X199216463Y-119676464D01*
X199093535Y-119553536D01*
X198952887Y-119451349D01*
X198952886Y-119451348D01*
X198952884Y-119451347D01*
X198797981Y-119372420D01*
X198797978Y-119372419D01*
X198797976Y-119372418D01*
X198632642Y-119318698D01*
X198632640Y-119318697D01*
X198632638Y-119318697D01*
X198460926Y-119291500D01*
X198287074Y-119291500D01*
X198115362Y-119318697D01*
X198115360Y-119318697D01*
X198115357Y-119318698D01*
X197950023Y-119372418D01*
X197950017Y-119372421D01*
X197795112Y-119451349D01*
X197654464Y-119553536D01*
X197531536Y-119676464D01*
X197429349Y-119817112D01*
X197350421Y-119972017D01*
X197350418Y-119972023D01*
X197296698Y-120137357D01*
X197296697Y-120137360D01*
X197296697Y-120137362D01*
X197269500Y-120309074D01*
X197269500Y-120482926D01*
X197296697Y-120654638D01*
X197350420Y-120819981D01*
X197350421Y-120819982D01*
X197429349Y-120974887D01*
X197531536Y-121115535D01*
X197654464Y-121238463D01*
X197746859Y-121305592D01*
X197795116Y-121340653D01*
X197950019Y-121419580D01*
X197950029Y-121419583D01*
X197952018Y-121420407D01*
X197952662Y-121420926D01*
X197954430Y-121421827D01*
X197954240Y-121422198D01*
X198007300Y-121464954D01*
X198029724Y-121532316D01*
X198012168Y-121601108D01*
X197960208Y-121649488D01*
X197942740Y-121656651D01*
X197855784Y-121684904D01*
X197855778Y-121684907D01*
X197666447Y-121781376D01*
X197666446Y-121781377D01*
X197612282Y-121820729D01*
X198244591Y-122453037D01*
X198181007Y-122470075D01*
X198066993Y-122535901D01*
X197973901Y-122628993D01*
X197908075Y-122743007D01*
X197891037Y-122806590D01*
X197258729Y-122174282D01*
X197219377Y-122228446D01*
X197219376Y-122228447D01*
X197122907Y-122417778D01*
X197122904Y-122417784D01*
X197057243Y-122619868D01*
X197024000Y-122829756D01*
X114800500Y-122829756D01*
X114800500Y-121972845D01*
X114820502Y-121904724D01*
X114874158Y-121858231D01*
X114939308Y-121847498D01*
X115022513Y-121855999D01*
X116422500Y-121855999D01*
X116922500Y-121855999D01*
X118322478Y-121855999D01*
X118425191Y-121845506D01*
X118591622Y-121790357D01*
X118740844Y-121698316D01*
X118740850Y-121698311D01*
X118864811Y-121574350D01*
X118864816Y-121574344D01*
X118956857Y-121425122D01*
X119012006Y-121258691D01*
X119022499Y-121155987D01*
X119022500Y-121155987D01*
X119022500Y-120931000D01*
X116922500Y-120931000D01*
X116922500Y-121855999D01*
X116422500Y-121855999D01*
X116422500Y-120431000D01*
X116922500Y-120431000D01*
X119022499Y-120431000D01*
X119022499Y-120206021D01*
X119012006Y-120103308D01*
X118956857Y-119936877D01*
X118864816Y-119787655D01*
X118864811Y-119787649D01*
X118740850Y-119663688D01*
X118740844Y-119663683D01*
X118591622Y-119571642D01*
X118425191Y-119516493D01*
X118322487Y-119506000D01*
X116922500Y-119506000D01*
X116922500Y-120431000D01*
X116422500Y-120431000D01*
X116422500Y-119506000D01*
X115022519Y-119506000D01*
X114939303Y-119514501D01*
X114869503Y-119501524D01*
X114817798Y-119452871D01*
X114800500Y-119389153D01*
X114800500Y-117769074D01*
X197269500Y-117769074D01*
X197269500Y-117942926D01*
X197296697Y-118114638D01*
X197350420Y-118279981D01*
X197350421Y-118279982D01*
X197429349Y-118434887D01*
X197531536Y-118575535D01*
X197654464Y-118698463D01*
X197654467Y-118698465D01*
X197795116Y-118800653D01*
X197950019Y-118879580D01*
X198115362Y-118933303D01*
X198287074Y-118960500D01*
X198287077Y-118960500D01*
X198460923Y-118960500D01*
X198460926Y-118960500D01*
X198632638Y-118933303D01*
X198797981Y-118879580D01*
X198952884Y-118800653D01*
X199093533Y-118698465D01*
X199216465Y-118575533D01*
X199318653Y-118434884D01*
X199397580Y-118279981D01*
X199451303Y-118114638D01*
X199478500Y-117942926D01*
X199478500Y-117769074D01*
X199809500Y-117769074D01*
X199809500Y-117942926D01*
X199836697Y-118114638D01*
X199890420Y-118279981D01*
X199890421Y-118279982D01*
X199969349Y-118434887D01*
X200071536Y-118575535D01*
X200194464Y-118698463D01*
X200194467Y-118698465D01*
X200335116Y-118800653D01*
X200490019Y-118879580D01*
X200655362Y-118933303D01*
X200827074Y-118960500D01*
X200827077Y-118960500D01*
X201000923Y-118960500D01*
X201000926Y-118960500D01*
X201172638Y-118933303D01*
X201337981Y-118879580D01*
X201492884Y-118800653D01*
X201633533Y-118698465D01*
X201756465Y-118575533D01*
X201858653Y-118434884D01*
X201937580Y-118279981D01*
X201991303Y-118114638D01*
X202018500Y-117942926D01*
X202018500Y-117769074D01*
X201991303Y-117597362D01*
X201937580Y-117432019D01*
X201858653Y-117277116D01*
X201756465Y-117136467D01*
X201756463Y-117136464D01*
X201633535Y-117013536D01*
X201492887Y-116911349D01*
X201492886Y-116911348D01*
X201492884Y-116911347D01*
X201337981Y-116832420D01*
X201337978Y-116832419D01*
X201337976Y-116832418D01*
X201172642Y-116778698D01*
X201172640Y-116778697D01*
X201172638Y-116778697D01*
X201000926Y-116751500D01*
X200827074Y-116751500D01*
X200655362Y-116778697D01*
X200655360Y-116778697D01*
X200655357Y-116778698D01*
X200490023Y-116832418D01*
X200490017Y-116832421D01*
X200335112Y-116911349D01*
X200194464Y-117013536D01*
X200071536Y-117136464D01*
X199969349Y-117277112D01*
X199890421Y-117432017D01*
X199890418Y-117432023D01*
X199836698Y-117597357D01*
X199836697Y-117597360D01*
X199836697Y-117597362D01*
X199809500Y-117769074D01*
X199478500Y-117769074D01*
X199451303Y-117597362D01*
X199397580Y-117432019D01*
X199318653Y-117277116D01*
X199216465Y-117136467D01*
X199216463Y-117136464D01*
X199093535Y-117013536D01*
X198952887Y-116911349D01*
X198952886Y-116911348D01*
X198952884Y-116911347D01*
X198797981Y-116832420D01*
X198797978Y-116832419D01*
X198797976Y-116832418D01*
X198632642Y-116778698D01*
X198632640Y-116778697D01*
X198632638Y-116778697D01*
X198460926Y-116751500D01*
X198287074Y-116751500D01*
X198115362Y-116778697D01*
X198115360Y-116778697D01*
X198115357Y-116778698D01*
X197950023Y-116832418D01*
X197950017Y-116832421D01*
X197795112Y-116911349D01*
X197654464Y-117013536D01*
X197531536Y-117136464D01*
X197429349Y-117277112D01*
X197350421Y-117432017D01*
X197350418Y-117432023D01*
X197296698Y-117597357D01*
X197296697Y-117597360D01*
X197296697Y-117597362D01*
X197269500Y-117769074D01*
X114800500Y-117769074D01*
X114800500Y-116322845D01*
X114820502Y-116254724D01*
X114874158Y-116208231D01*
X114939308Y-116197498D01*
X115022513Y-116205999D01*
X116422500Y-116205999D01*
X116922500Y-116205999D01*
X118322478Y-116205999D01*
X118425191Y-116195506D01*
X118591622Y-116140357D01*
X118740844Y-116048316D01*
X118740850Y-116048311D01*
X118864811Y-115924350D01*
X118864816Y-115924344D01*
X118956857Y-115775122D01*
X119012006Y-115608691D01*
X119022499Y-115505987D01*
X119022500Y-115505987D01*
X119022500Y-115281000D01*
X116922500Y-115281000D01*
X116922500Y-116205999D01*
X116422500Y-116205999D01*
X116422500Y-115229074D01*
X197269500Y-115229074D01*
X197269500Y-115402926D01*
X197296697Y-115574638D01*
X197350420Y-115739981D01*
X197429347Y-115894884D01*
X197429349Y-115894887D01*
X197531536Y-116035535D01*
X197654464Y-116158463D01*
X197654467Y-116158465D01*
X197795116Y-116260653D01*
X197950019Y-116339580D01*
X198115362Y-116393303D01*
X198287074Y-116420500D01*
X198287077Y-116420500D01*
X198460923Y-116420500D01*
X198460926Y-116420500D01*
X198632638Y-116393303D01*
X198797981Y-116339580D01*
X198952884Y-116260653D01*
X199093533Y-116158465D01*
X199216465Y-116035533D01*
X199318653Y-115894884D01*
X199397580Y-115739981D01*
X199451303Y-115574638D01*
X199478500Y-115402926D01*
X199478500Y-115229074D01*
X199809500Y-115229074D01*
X199809500Y-115402926D01*
X199836697Y-115574638D01*
X199890420Y-115739981D01*
X199969347Y-115894884D01*
X199969349Y-115894887D01*
X200071536Y-116035535D01*
X200194464Y-116158463D01*
X200194467Y-116158465D01*
X200335116Y-116260653D01*
X200490019Y-116339580D01*
X200655362Y-116393303D01*
X200827074Y-116420500D01*
X200827077Y-116420500D01*
X201000923Y-116420500D01*
X201000926Y-116420500D01*
X201172638Y-116393303D01*
X201337981Y-116339580D01*
X201492884Y-116260653D01*
X201633533Y-116158465D01*
X201756465Y-116035533D01*
X201858653Y-115894884D01*
X201937580Y-115739981D01*
X201991303Y-115574638D01*
X202018500Y-115402926D01*
X202018500Y-115229074D01*
X201991303Y-115057362D01*
X201937580Y-114892019D01*
X201858653Y-114737116D01*
X201756465Y-114596467D01*
X201756463Y-114596464D01*
X201633535Y-114473536D01*
X201492887Y-114371349D01*
X201492886Y-114371348D01*
X201492884Y-114371347D01*
X201337981Y-114292420D01*
X201337978Y-114292419D01*
X201337976Y-114292418D01*
X201172642Y-114238698D01*
X201172640Y-114238697D01*
X201172638Y-114238697D01*
X201000926Y-114211500D01*
X200827074Y-114211500D01*
X200655362Y-114238697D01*
X200655360Y-114238697D01*
X200655357Y-114238698D01*
X200490023Y-114292418D01*
X200490017Y-114292421D01*
X200335112Y-114371349D01*
X200194464Y-114473536D01*
X200071536Y-114596464D01*
X199969349Y-114737112D01*
X199890421Y-114892017D01*
X199890418Y-114892023D01*
X199836698Y-115057357D01*
X199836697Y-115057360D01*
X199836697Y-115057362D01*
X199809500Y-115229074D01*
X199478500Y-115229074D01*
X199451303Y-115057362D01*
X199397580Y-114892019D01*
X199318653Y-114737116D01*
X199216465Y-114596467D01*
X199216463Y-114596464D01*
X199093535Y-114473536D01*
X198952887Y-114371349D01*
X198952886Y-114371348D01*
X198952884Y-114371347D01*
X198797981Y-114292420D01*
X198797978Y-114292419D01*
X198797976Y-114292418D01*
X198632642Y-114238698D01*
X198632640Y-114238697D01*
X198632638Y-114238697D01*
X198460926Y-114211500D01*
X198287074Y-114211500D01*
X198115362Y-114238697D01*
X198115360Y-114238697D01*
X198115357Y-114238698D01*
X197950023Y-114292418D01*
X197950017Y-114292421D01*
X197795112Y-114371349D01*
X197654464Y-114473536D01*
X197531536Y-114596464D01*
X197429349Y-114737112D01*
X197350421Y-114892017D01*
X197350418Y-114892023D01*
X197296698Y-115057357D01*
X197296697Y-115057360D01*
X197296697Y-115057362D01*
X197269500Y-115229074D01*
X116422500Y-115229074D01*
X116422500Y-114781000D01*
X116922500Y-114781000D01*
X119022499Y-114781000D01*
X119022499Y-114556021D01*
X119012006Y-114453308D01*
X118956857Y-114286877D01*
X118864816Y-114137655D01*
X118864811Y-114137649D01*
X118740850Y-114013688D01*
X118740844Y-114013683D01*
X118591622Y-113921642D01*
X118425191Y-113866493D01*
X118322487Y-113856000D01*
X116922500Y-113856000D01*
X116922500Y-114781000D01*
X116422500Y-114781000D01*
X116422500Y-113856000D01*
X115022519Y-113856000D01*
X114939303Y-113864501D01*
X114869503Y-113851524D01*
X114817798Y-113802871D01*
X114800500Y-113739153D01*
X114800500Y-112689074D01*
X197269500Y-112689074D01*
X197269500Y-112862926D01*
X197296697Y-113034638D01*
X197350420Y-113199981D01*
X197350421Y-113199982D01*
X197429349Y-113354887D01*
X197531536Y-113495535D01*
X197654464Y-113618463D01*
X197654467Y-113618465D01*
X197795116Y-113720653D01*
X197950019Y-113799580D01*
X198115362Y-113853303D01*
X198287074Y-113880500D01*
X198287077Y-113880500D01*
X198460923Y-113880500D01*
X198460926Y-113880500D01*
X198632638Y-113853303D01*
X198797981Y-113799580D01*
X198952884Y-113720653D01*
X199093533Y-113618465D01*
X199216465Y-113495533D01*
X199318653Y-113354884D01*
X199397580Y-113199981D01*
X199451303Y-113034638D01*
X199478500Y-112862926D01*
X199478500Y-112689074D01*
X199809500Y-112689074D01*
X199809500Y-112862926D01*
X199836697Y-113034638D01*
X199890420Y-113199981D01*
X199890421Y-113199982D01*
X199969349Y-113354887D01*
X200071536Y-113495535D01*
X200194464Y-113618463D01*
X200194467Y-113618465D01*
X200335116Y-113720653D01*
X200490019Y-113799580D01*
X200655362Y-113853303D01*
X200827074Y-113880500D01*
X200827077Y-113880500D01*
X201000923Y-113880500D01*
X201000926Y-113880500D01*
X201172638Y-113853303D01*
X201337981Y-113799580D01*
X201492884Y-113720653D01*
X201633533Y-113618465D01*
X201756465Y-113495533D01*
X201858653Y-113354884D01*
X201937580Y-113199981D01*
X201991303Y-113034638D01*
X202018500Y-112862926D01*
X202018500Y-112689074D01*
X201991303Y-112517362D01*
X201937580Y-112352019D01*
X201858653Y-112197116D01*
X201756465Y-112056467D01*
X201756463Y-112056464D01*
X201633535Y-111933536D01*
X201492887Y-111831349D01*
X201492886Y-111831348D01*
X201492884Y-111831347D01*
X201337981Y-111752420D01*
X201337978Y-111752419D01*
X201337976Y-111752418D01*
X201172642Y-111698698D01*
X201172640Y-111698697D01*
X201172638Y-111698697D01*
X201000926Y-111671500D01*
X200827074Y-111671500D01*
X200655362Y-111698697D01*
X200655360Y-111698697D01*
X200655357Y-111698698D01*
X200490023Y-111752418D01*
X200490017Y-111752421D01*
X200335112Y-111831349D01*
X200194464Y-111933536D01*
X200071536Y-112056464D01*
X199969349Y-112197112D01*
X199890421Y-112352017D01*
X199890418Y-112352023D01*
X199836698Y-112517357D01*
X199836697Y-112517360D01*
X199836697Y-112517362D01*
X199809500Y-112689074D01*
X199478500Y-112689074D01*
X199451303Y-112517362D01*
X199397580Y-112352019D01*
X199318653Y-112197116D01*
X199216465Y-112056467D01*
X199216463Y-112056464D01*
X199093535Y-111933536D01*
X198952887Y-111831349D01*
X198952886Y-111831348D01*
X198952884Y-111831347D01*
X198797981Y-111752420D01*
X198797978Y-111752419D01*
X198797976Y-111752418D01*
X198632642Y-111698698D01*
X198632640Y-111698697D01*
X198632638Y-111698697D01*
X198460926Y-111671500D01*
X198287074Y-111671500D01*
X198115362Y-111698697D01*
X198115360Y-111698697D01*
X198115357Y-111698698D01*
X197950023Y-111752418D01*
X197950017Y-111752421D01*
X197795112Y-111831349D01*
X197654464Y-111933536D01*
X197531536Y-112056464D01*
X197429349Y-112197112D01*
X197350421Y-112352017D01*
X197350418Y-112352023D01*
X197296698Y-112517357D01*
X197296697Y-112517360D01*
X197296697Y-112517362D01*
X197269500Y-112689074D01*
X114800500Y-112689074D01*
X114800500Y-110149074D01*
X197269500Y-110149074D01*
X197269500Y-110322926D01*
X197296697Y-110494638D01*
X197350420Y-110659981D01*
X197350421Y-110659982D01*
X197429349Y-110814887D01*
X197531536Y-110955535D01*
X197654464Y-111078463D01*
X197654467Y-111078465D01*
X197795116Y-111180653D01*
X197950019Y-111259580D01*
X198115362Y-111313303D01*
X198287074Y-111340500D01*
X198287077Y-111340500D01*
X198460923Y-111340500D01*
X198460926Y-111340500D01*
X198632638Y-111313303D01*
X198797981Y-111259580D01*
X198952884Y-111180653D01*
X199093533Y-111078465D01*
X199216465Y-110955533D01*
X199318653Y-110814884D01*
X199397580Y-110659981D01*
X199451303Y-110494638D01*
X199478500Y-110322926D01*
X199478500Y-110149074D01*
X199809500Y-110149074D01*
X199809500Y-110322926D01*
X199836697Y-110494638D01*
X199890420Y-110659981D01*
X199890421Y-110659982D01*
X199969349Y-110814887D01*
X200071536Y-110955535D01*
X200194464Y-111078463D01*
X200194467Y-111078465D01*
X200335116Y-111180653D01*
X200490019Y-111259580D01*
X200655362Y-111313303D01*
X200827074Y-111340500D01*
X200827077Y-111340500D01*
X201000923Y-111340500D01*
X201000926Y-111340500D01*
X201172638Y-111313303D01*
X201337981Y-111259580D01*
X201492884Y-111180653D01*
X201633533Y-111078465D01*
X201756465Y-110955533D01*
X201858653Y-110814884D01*
X201937580Y-110659981D01*
X201991303Y-110494638D01*
X202018500Y-110322926D01*
X202018500Y-110149074D01*
X201991303Y-109977362D01*
X201937580Y-109812019D01*
X201858653Y-109657116D01*
X201756465Y-109516467D01*
X201756463Y-109516464D01*
X201633535Y-109393536D01*
X201492887Y-109291349D01*
X201492886Y-109291348D01*
X201492884Y-109291347D01*
X201337981Y-109212420D01*
X201337978Y-109212419D01*
X201337976Y-109212418D01*
X201172642Y-109158698D01*
X201172640Y-109158697D01*
X201172638Y-109158697D01*
X201000926Y-109131500D01*
X200827074Y-109131500D01*
X200655362Y-109158697D01*
X200655360Y-109158697D01*
X200655357Y-109158698D01*
X200490023Y-109212418D01*
X200490017Y-109212421D01*
X200335112Y-109291349D01*
X200194464Y-109393536D01*
X200071536Y-109516464D01*
X199969349Y-109657112D01*
X199890421Y-109812017D01*
X199890418Y-109812023D01*
X199836698Y-109977357D01*
X199836697Y-109977360D01*
X199836697Y-109977362D01*
X199809500Y-110149074D01*
X199478500Y-110149074D01*
X199451303Y-109977362D01*
X199397580Y-109812019D01*
X199318653Y-109657116D01*
X199216465Y-109516467D01*
X199216463Y-109516464D01*
X199093535Y-109393536D01*
X198952887Y-109291349D01*
X198952886Y-109291348D01*
X198952884Y-109291347D01*
X198797981Y-109212420D01*
X198797978Y-109212419D01*
X198797976Y-109212418D01*
X198632642Y-109158698D01*
X198632640Y-109158697D01*
X198632638Y-109158697D01*
X198460926Y-109131500D01*
X198287074Y-109131500D01*
X198115362Y-109158697D01*
X198115360Y-109158697D01*
X198115357Y-109158698D01*
X197950023Y-109212418D01*
X197950017Y-109212421D01*
X197795112Y-109291349D01*
X197654464Y-109393536D01*
X197531536Y-109516464D01*
X197429349Y-109657112D01*
X197350421Y-109812017D01*
X197350418Y-109812023D01*
X197296698Y-109977357D01*
X197296697Y-109977360D01*
X197296697Y-109977362D01*
X197269500Y-110149074D01*
X114800500Y-110149074D01*
X114800500Y-107609074D01*
X197269500Y-107609074D01*
X197269500Y-107782926D01*
X197296697Y-107954638D01*
X197350420Y-108119981D01*
X197350421Y-108119982D01*
X197429349Y-108274887D01*
X197531536Y-108415535D01*
X197654464Y-108538463D01*
X197654467Y-108538465D01*
X197795116Y-108640653D01*
X197950019Y-108719580D01*
X198115362Y-108773303D01*
X198287074Y-108800500D01*
X198287077Y-108800500D01*
X198460923Y-108800500D01*
X198460926Y-108800500D01*
X198632638Y-108773303D01*
X198797981Y-108719580D01*
X198952884Y-108640653D01*
X199093533Y-108538465D01*
X199216465Y-108415533D01*
X199318653Y-108274884D01*
X199397580Y-108119981D01*
X199451303Y-107954638D01*
X199478500Y-107782926D01*
X199478500Y-107609074D01*
X199809500Y-107609074D01*
X199809500Y-107782926D01*
X199836697Y-107954638D01*
X199890420Y-108119981D01*
X199890421Y-108119982D01*
X199969349Y-108274887D01*
X200071536Y-108415535D01*
X200194464Y-108538463D01*
X200194467Y-108538465D01*
X200335116Y-108640653D01*
X200490019Y-108719580D01*
X200655362Y-108773303D01*
X200827074Y-108800500D01*
X200827077Y-108800500D01*
X201000923Y-108800500D01*
X201000926Y-108800500D01*
X201172638Y-108773303D01*
X201337981Y-108719580D01*
X201492884Y-108640653D01*
X201633533Y-108538465D01*
X201756465Y-108415533D01*
X201858653Y-108274884D01*
X201937580Y-108119981D01*
X201991303Y-107954638D01*
X202018500Y-107782926D01*
X202018500Y-107609074D01*
X201991303Y-107437362D01*
X201937580Y-107272019D01*
X201858653Y-107117116D01*
X201756465Y-106976467D01*
X201756463Y-106976464D01*
X201633535Y-106853536D01*
X201492887Y-106751349D01*
X201492886Y-106751348D01*
X201492884Y-106751347D01*
X201337981Y-106672420D01*
X201337978Y-106672419D01*
X201337976Y-106672418D01*
X201172642Y-106618698D01*
X201172640Y-106618697D01*
X201172638Y-106618697D01*
X201000926Y-106591500D01*
X200827074Y-106591500D01*
X200655362Y-106618697D01*
X200655360Y-106618697D01*
X200655357Y-106618698D01*
X200490023Y-106672418D01*
X200490017Y-106672421D01*
X200335112Y-106751349D01*
X200194464Y-106853536D01*
X200071536Y-106976464D01*
X199969349Y-107117112D01*
X199890421Y-107272017D01*
X199890418Y-107272023D01*
X199836698Y-107437357D01*
X199836697Y-107437360D01*
X199836697Y-107437362D01*
X199809500Y-107609074D01*
X199478500Y-107609074D01*
X199451303Y-107437362D01*
X199397580Y-107272019D01*
X199318653Y-107117116D01*
X199216465Y-106976467D01*
X199216463Y-106976464D01*
X199093535Y-106853536D01*
X198952887Y-106751349D01*
X198952886Y-106751348D01*
X198952884Y-106751347D01*
X198797981Y-106672420D01*
X198797978Y-106672419D01*
X198797976Y-106672418D01*
X198632642Y-106618698D01*
X198632640Y-106618697D01*
X198632638Y-106618697D01*
X198460926Y-106591500D01*
X198287074Y-106591500D01*
X198115362Y-106618697D01*
X198115360Y-106618697D01*
X198115357Y-106618698D01*
X197950023Y-106672418D01*
X197950017Y-106672421D01*
X197795112Y-106751349D01*
X197654464Y-106853536D01*
X197531536Y-106976464D01*
X197429349Y-107117112D01*
X197350421Y-107272017D01*
X197350418Y-107272023D01*
X197296698Y-107437357D01*
X197296697Y-107437360D01*
X197296697Y-107437362D01*
X197269500Y-107609074D01*
X114800500Y-107609074D01*
X114800500Y-105069074D01*
X197269500Y-105069074D01*
X197269500Y-105242926D01*
X197296697Y-105414638D01*
X197350420Y-105579981D01*
X197350421Y-105579982D01*
X197429349Y-105734887D01*
X197531536Y-105875535D01*
X197654464Y-105998463D01*
X197654467Y-105998465D01*
X197795116Y-106100653D01*
X197950019Y-106179580D01*
X198115362Y-106233303D01*
X198287074Y-106260500D01*
X198287077Y-106260500D01*
X198460923Y-106260500D01*
X198460926Y-106260500D01*
X198632638Y-106233303D01*
X198797981Y-106179580D01*
X198952884Y-106100653D01*
X199093533Y-105998465D01*
X199216465Y-105875533D01*
X199318653Y-105734884D01*
X199397580Y-105579981D01*
X199451303Y-105414638D01*
X199478500Y-105242926D01*
X199478500Y-105069074D01*
X199809500Y-105069074D01*
X199809500Y-105242926D01*
X199836697Y-105414638D01*
X199890420Y-105579981D01*
X199890421Y-105579982D01*
X199969349Y-105734887D01*
X200071536Y-105875535D01*
X200194464Y-105998463D01*
X200194467Y-105998465D01*
X200335116Y-106100653D01*
X200490019Y-106179580D01*
X200655362Y-106233303D01*
X200827074Y-106260500D01*
X200827077Y-106260500D01*
X201000923Y-106260500D01*
X201000926Y-106260500D01*
X201172638Y-106233303D01*
X201337981Y-106179580D01*
X201492884Y-106100653D01*
X201633533Y-105998465D01*
X201756465Y-105875533D01*
X201858653Y-105734884D01*
X201937580Y-105579981D01*
X201991303Y-105414638D01*
X202018500Y-105242926D01*
X202018500Y-105069074D01*
X201991303Y-104897362D01*
X201937580Y-104732019D01*
X201858653Y-104577116D01*
X201756465Y-104436467D01*
X201756463Y-104436464D01*
X201633535Y-104313536D01*
X201492887Y-104211349D01*
X201492886Y-104211348D01*
X201492884Y-104211347D01*
X201337981Y-104132420D01*
X201337978Y-104132419D01*
X201337976Y-104132418D01*
X201172642Y-104078698D01*
X201172640Y-104078697D01*
X201172638Y-104078697D01*
X201000926Y-104051500D01*
X200827074Y-104051500D01*
X200655362Y-104078697D01*
X200655360Y-104078697D01*
X200655357Y-104078698D01*
X200490023Y-104132418D01*
X200490017Y-104132421D01*
X200335112Y-104211349D01*
X200194464Y-104313536D01*
X200071536Y-104436464D01*
X199969349Y-104577112D01*
X199890421Y-104732017D01*
X199890418Y-104732023D01*
X199836698Y-104897357D01*
X199836697Y-104897360D01*
X199836697Y-104897362D01*
X199809500Y-105069074D01*
X199478500Y-105069074D01*
X199451303Y-104897362D01*
X199397580Y-104732019D01*
X199318653Y-104577116D01*
X199216465Y-104436467D01*
X199216463Y-104436464D01*
X199093535Y-104313536D01*
X198952887Y-104211349D01*
X198952886Y-104211348D01*
X198952884Y-104211347D01*
X198797981Y-104132420D01*
X198797978Y-104132419D01*
X198797976Y-104132418D01*
X198632642Y-104078698D01*
X198632640Y-104078697D01*
X198632638Y-104078697D01*
X198460926Y-104051500D01*
X198287074Y-104051500D01*
X198115362Y-104078697D01*
X198115360Y-104078697D01*
X198115357Y-104078698D01*
X197950023Y-104132418D01*
X197950017Y-104132421D01*
X197795112Y-104211349D01*
X197654464Y-104313536D01*
X197531536Y-104436464D01*
X197429349Y-104577112D01*
X197350421Y-104732017D01*
X197350418Y-104732023D01*
X197296698Y-104897357D01*
X197296697Y-104897360D01*
X197296697Y-104897362D01*
X197269500Y-105069074D01*
X114800500Y-105069074D01*
X114800500Y-102529074D01*
X197269500Y-102529074D01*
X197269500Y-102702926D01*
X197296697Y-102874638D01*
X197350420Y-103039981D01*
X197350421Y-103039982D01*
X197429349Y-103194887D01*
X197531536Y-103335535D01*
X197654464Y-103458463D01*
X197654467Y-103458465D01*
X197795116Y-103560653D01*
X197950019Y-103639580D01*
X198115362Y-103693303D01*
X198287074Y-103720500D01*
X198287077Y-103720500D01*
X198460923Y-103720500D01*
X198460926Y-103720500D01*
X198632638Y-103693303D01*
X198797981Y-103639580D01*
X198952884Y-103560653D01*
X199093533Y-103458465D01*
X199216465Y-103335533D01*
X199318653Y-103194884D01*
X199397580Y-103039981D01*
X199451303Y-102874638D01*
X199478500Y-102702926D01*
X199478500Y-102529074D01*
X199809500Y-102529074D01*
X199809500Y-102702926D01*
X199836697Y-102874638D01*
X199890420Y-103039981D01*
X199890421Y-103039982D01*
X199969349Y-103194887D01*
X200071536Y-103335535D01*
X200194464Y-103458463D01*
X200194467Y-103458465D01*
X200335116Y-103560653D01*
X200490019Y-103639580D01*
X200655362Y-103693303D01*
X200827074Y-103720500D01*
X200827077Y-103720500D01*
X201000923Y-103720500D01*
X201000926Y-103720500D01*
X201172638Y-103693303D01*
X201337981Y-103639580D01*
X201492884Y-103560653D01*
X201633533Y-103458465D01*
X201756465Y-103335533D01*
X201858653Y-103194884D01*
X201937580Y-103039981D01*
X201991303Y-102874638D01*
X202018500Y-102702926D01*
X202018500Y-102529074D01*
X201991303Y-102357362D01*
X201937580Y-102192019D01*
X201858653Y-102037116D01*
X201756465Y-101896467D01*
X201756463Y-101896464D01*
X201633535Y-101773536D01*
X201492887Y-101671349D01*
X201492886Y-101671348D01*
X201492884Y-101671347D01*
X201337981Y-101592420D01*
X201337978Y-101592419D01*
X201337976Y-101592418D01*
X201172642Y-101538698D01*
X201172640Y-101538697D01*
X201172638Y-101538697D01*
X201000926Y-101511500D01*
X200827074Y-101511500D01*
X200655362Y-101538697D01*
X200655360Y-101538697D01*
X200655357Y-101538698D01*
X200490023Y-101592418D01*
X200490017Y-101592421D01*
X200335112Y-101671349D01*
X200194464Y-101773536D01*
X200071536Y-101896464D01*
X199969349Y-102037112D01*
X199890421Y-102192017D01*
X199890418Y-102192023D01*
X199836698Y-102357357D01*
X199836697Y-102357360D01*
X199836697Y-102357362D01*
X199809500Y-102529074D01*
X199478500Y-102529074D01*
X199451303Y-102357362D01*
X199397580Y-102192019D01*
X199318653Y-102037116D01*
X199216465Y-101896467D01*
X199216463Y-101896464D01*
X199093535Y-101773536D01*
X198952887Y-101671349D01*
X198952886Y-101671348D01*
X198952884Y-101671347D01*
X198797981Y-101592420D01*
X198797978Y-101592419D01*
X198797976Y-101592418D01*
X198632642Y-101538698D01*
X198632640Y-101538697D01*
X198632638Y-101538697D01*
X198460926Y-101511500D01*
X198287074Y-101511500D01*
X198115362Y-101538697D01*
X198115360Y-101538697D01*
X198115357Y-101538698D01*
X197950023Y-101592418D01*
X197950017Y-101592421D01*
X197795112Y-101671349D01*
X197654464Y-101773536D01*
X197531536Y-101896464D01*
X197429349Y-102037112D01*
X197350421Y-102192017D01*
X197350418Y-102192023D01*
X197296698Y-102357357D01*
X197296697Y-102357360D01*
X197296697Y-102357362D01*
X197269500Y-102529074D01*
X114800500Y-102529074D01*
X114800500Y-99989074D01*
X197269500Y-99989074D01*
X197269500Y-100162926D01*
X197296697Y-100334638D01*
X197350420Y-100499981D01*
X197350421Y-100499982D01*
X197429349Y-100654887D01*
X197531536Y-100795535D01*
X197654464Y-100918463D01*
X197654467Y-100918465D01*
X197795116Y-101020653D01*
X197950019Y-101099580D01*
X198115362Y-101153303D01*
X198287074Y-101180500D01*
X198287077Y-101180500D01*
X198460923Y-101180500D01*
X198460926Y-101180500D01*
X198632638Y-101153303D01*
X198797981Y-101099580D01*
X198952884Y-101020653D01*
X199093533Y-100918465D01*
X199216465Y-100795533D01*
X199318653Y-100654884D01*
X199397580Y-100499981D01*
X199451303Y-100334638D01*
X199478500Y-100162926D01*
X199478500Y-99989074D01*
X199809500Y-99989074D01*
X199809500Y-100162926D01*
X199836697Y-100334638D01*
X199890420Y-100499981D01*
X199890421Y-100499982D01*
X199969349Y-100654887D01*
X200071536Y-100795535D01*
X200194464Y-100918463D01*
X200194467Y-100918465D01*
X200335116Y-101020653D01*
X200490019Y-101099580D01*
X200655362Y-101153303D01*
X200827074Y-101180500D01*
X200827077Y-101180500D01*
X201000923Y-101180500D01*
X201000926Y-101180500D01*
X201172638Y-101153303D01*
X201337981Y-101099580D01*
X201492884Y-101020653D01*
X201633533Y-100918465D01*
X201756465Y-100795533D01*
X201858653Y-100654884D01*
X201937580Y-100499981D01*
X201991303Y-100334638D01*
X202018500Y-100162926D01*
X202018500Y-99989074D01*
X201991303Y-99817362D01*
X201937580Y-99652019D01*
X201858653Y-99497116D01*
X201756465Y-99356467D01*
X201756463Y-99356464D01*
X201633535Y-99233536D01*
X201492887Y-99131349D01*
X201492886Y-99131348D01*
X201492884Y-99131347D01*
X201337981Y-99052420D01*
X201337978Y-99052419D01*
X201337976Y-99052418D01*
X201172642Y-98998698D01*
X201172640Y-98998697D01*
X201172638Y-98998697D01*
X201000926Y-98971500D01*
X200827074Y-98971500D01*
X200655362Y-98998697D01*
X200655360Y-98998697D01*
X200655357Y-98998698D01*
X200490023Y-99052418D01*
X200490017Y-99052421D01*
X200335112Y-99131349D01*
X200194464Y-99233536D01*
X200071536Y-99356464D01*
X199969349Y-99497112D01*
X199890421Y-99652017D01*
X199890418Y-99652023D01*
X199836698Y-99817357D01*
X199836697Y-99817360D01*
X199836697Y-99817362D01*
X199809500Y-99989074D01*
X199478500Y-99989074D01*
X199451303Y-99817362D01*
X199397580Y-99652019D01*
X199318653Y-99497116D01*
X199216465Y-99356467D01*
X199216463Y-99356464D01*
X199093535Y-99233536D01*
X198952887Y-99131349D01*
X198952886Y-99131348D01*
X198952884Y-99131347D01*
X198797981Y-99052420D01*
X198797978Y-99052419D01*
X198797976Y-99052418D01*
X198632642Y-98998698D01*
X198632640Y-98998697D01*
X198632638Y-98998697D01*
X198460926Y-98971500D01*
X198287074Y-98971500D01*
X198115362Y-98998697D01*
X198115360Y-98998697D01*
X198115357Y-98998698D01*
X197950023Y-99052418D01*
X197950017Y-99052421D01*
X197795112Y-99131349D01*
X197654464Y-99233536D01*
X197531536Y-99356464D01*
X197429349Y-99497112D01*
X197350421Y-99652017D01*
X197350418Y-99652023D01*
X197296698Y-99817357D01*
X197296697Y-99817360D01*
X197296697Y-99817362D01*
X197269500Y-99989074D01*
X114800500Y-99989074D01*
X114800500Y-97449074D01*
X197269500Y-97449074D01*
X197269500Y-97622926D01*
X197296697Y-97794638D01*
X197350420Y-97959981D01*
X197350421Y-97959982D01*
X197429349Y-98114887D01*
X197531536Y-98255535D01*
X197654464Y-98378463D01*
X197654467Y-98378465D01*
X197795116Y-98480653D01*
X197950019Y-98559580D01*
X198115362Y-98613303D01*
X198287074Y-98640500D01*
X198287077Y-98640500D01*
X198460923Y-98640500D01*
X198460926Y-98640500D01*
X198632638Y-98613303D01*
X198797981Y-98559580D01*
X198952884Y-98480653D01*
X199093533Y-98378465D01*
X199216465Y-98255533D01*
X199318653Y-98114884D01*
X199397580Y-97959981D01*
X199451303Y-97794638D01*
X199478500Y-97622926D01*
X199478500Y-97449074D01*
X199809500Y-97449074D01*
X199809500Y-97622926D01*
X199836697Y-97794638D01*
X199890420Y-97959981D01*
X199890421Y-97959982D01*
X199969349Y-98114887D01*
X200071536Y-98255535D01*
X200194464Y-98378463D01*
X200194467Y-98378465D01*
X200335116Y-98480653D01*
X200490019Y-98559580D01*
X200655362Y-98613303D01*
X200827074Y-98640500D01*
X200827077Y-98640500D01*
X201000923Y-98640500D01*
X201000926Y-98640500D01*
X201172638Y-98613303D01*
X201337981Y-98559580D01*
X201492884Y-98480653D01*
X201633533Y-98378465D01*
X201756465Y-98255533D01*
X201858653Y-98114884D01*
X201937580Y-97959981D01*
X201991303Y-97794638D01*
X202018500Y-97622926D01*
X202018500Y-97449074D01*
X201991303Y-97277362D01*
X201937580Y-97112019D01*
X201858653Y-96957116D01*
X201756465Y-96816467D01*
X201756463Y-96816464D01*
X201633535Y-96693536D01*
X201492887Y-96591349D01*
X201492886Y-96591348D01*
X201492884Y-96591347D01*
X201337981Y-96512420D01*
X201337978Y-96512419D01*
X201337976Y-96512418D01*
X201172642Y-96458698D01*
X201172640Y-96458697D01*
X201172638Y-96458697D01*
X201000926Y-96431500D01*
X200827074Y-96431500D01*
X200655362Y-96458697D01*
X200655360Y-96458697D01*
X200655357Y-96458698D01*
X200490023Y-96512418D01*
X200490017Y-96512421D01*
X200335112Y-96591349D01*
X200194464Y-96693536D01*
X200071536Y-96816464D01*
X199969349Y-96957112D01*
X199890421Y-97112017D01*
X199890418Y-97112023D01*
X199836698Y-97277357D01*
X199836697Y-97277360D01*
X199836697Y-97277362D01*
X199809500Y-97449074D01*
X199478500Y-97449074D01*
X199451303Y-97277362D01*
X199397580Y-97112019D01*
X199318653Y-96957116D01*
X199216465Y-96816467D01*
X199216463Y-96816464D01*
X199093535Y-96693536D01*
X198952887Y-96591349D01*
X198952886Y-96591348D01*
X198952884Y-96591347D01*
X198797981Y-96512420D01*
X198797978Y-96512419D01*
X198797976Y-96512418D01*
X198632642Y-96458698D01*
X198632640Y-96458697D01*
X198632638Y-96458697D01*
X198460926Y-96431500D01*
X198287074Y-96431500D01*
X198115362Y-96458697D01*
X198115360Y-96458697D01*
X198115357Y-96458698D01*
X197950023Y-96512418D01*
X197950017Y-96512421D01*
X197795112Y-96591349D01*
X197654464Y-96693536D01*
X197531536Y-96816464D01*
X197429349Y-96957112D01*
X197350421Y-97112017D01*
X197350418Y-97112023D01*
X197296698Y-97277357D01*
X197296697Y-97277360D01*
X197296697Y-97277362D01*
X197269500Y-97449074D01*
X114800500Y-97449074D01*
X114800500Y-86986159D01*
X117014000Y-86986159D01*
X117014000Y-87634000D01*
X117930988Y-87634000D01*
X117898075Y-87691007D01*
X117864000Y-87818174D01*
X117864000Y-87949826D01*
X117898075Y-88076993D01*
X117930988Y-88134000D01*
X117014000Y-88134000D01*
X117014000Y-88781840D01*
X117020400Y-88841371D01*
X117070647Y-88976089D01*
X117156810Y-89091189D01*
X117271910Y-89177352D01*
X117406628Y-89227599D01*
X117466159Y-89233999D01*
X117466176Y-89234000D01*
X118114000Y-89234000D01*
X118114000Y-88317012D01*
X118171007Y-88349925D01*
X118298174Y-88384000D01*
X118429826Y-88384000D01*
X118556993Y-88349925D01*
X118614000Y-88317012D01*
X118614000Y-89234000D01*
X119261824Y-89234000D01*
X119261840Y-89233999D01*
X119321371Y-89227599D01*
X119456089Y-89177352D01*
X119571189Y-89091189D01*
X119657352Y-88976089D01*
X119707599Y-88841371D01*
X119713999Y-88781840D01*
X119714000Y-88781823D01*
X119714000Y-88134000D01*
X118797012Y-88134000D01*
X118829925Y-88076993D01*
X118864000Y-87949826D01*
X118864000Y-87818174D01*
X118829925Y-87691007D01*
X118797012Y-87634000D01*
X119714000Y-87634000D01*
X119714000Y-86986176D01*
X119713999Y-86986159D01*
X119707599Y-86926628D01*
X119657352Y-86791910D01*
X119571189Y-86676810D01*
X119456089Y-86590647D01*
X119321371Y-86540400D01*
X119261840Y-86534000D01*
X118986191Y-86534000D01*
X118918070Y-86513998D01*
X118871577Y-86460342D01*
X118861473Y-86390068D01*
X118890967Y-86325488D01*
X118928986Y-86295734D01*
X118942884Y-86288653D01*
X119083533Y-86186465D01*
X119206465Y-86063533D01*
X119308653Y-85922884D01*
X119387580Y-85767981D01*
X119441303Y-85602638D01*
X119468500Y-85430926D01*
X119468500Y-85257074D01*
X119441303Y-85085362D01*
X119387580Y-84920019D01*
X119308653Y-84765116D01*
X119233964Y-84662316D01*
X119206463Y-84624464D01*
X119083535Y-84501536D01*
X118942887Y-84399349D01*
X118942886Y-84399348D01*
X118942884Y-84399347D01*
X118787981Y-84320420D01*
X118787978Y-84320419D01*
X118787976Y-84320418D01*
X118622642Y-84266698D01*
X118622640Y-84266697D01*
X118622638Y-84266697D01*
X118450926Y-84239500D01*
X118277074Y-84239500D01*
X118105362Y-84266697D01*
X118105360Y-84266697D01*
X118105357Y-84266698D01*
X117940023Y-84320418D01*
X117940017Y-84320421D01*
X117785112Y-84399349D01*
X117644464Y-84501536D01*
X117521536Y-84624464D01*
X117419349Y-84765112D01*
X117340421Y-84920017D01*
X117340418Y-84920023D01*
X117286698Y-85085357D01*
X117286697Y-85085360D01*
X117286697Y-85085362D01*
X117259500Y-85257074D01*
X117259500Y-85430926D01*
X117285918Y-85597717D01*
X117286698Y-85602642D01*
X117298175Y-85637966D01*
X117340420Y-85767981D01*
X117404630Y-85894000D01*
X117419349Y-85922887D01*
X117521536Y-86063535D01*
X117644464Y-86186463D01*
X117768520Y-86276595D01*
X117785116Y-86288653D01*
X117799012Y-86295733D01*
X117850627Y-86344482D01*
X117867693Y-86413397D01*
X117844792Y-86480598D01*
X117789194Y-86524750D01*
X117741809Y-86534000D01*
X117466159Y-86534000D01*
X117406628Y-86540400D01*
X117271910Y-86590647D01*
X117156810Y-86676810D01*
X117070647Y-86791910D01*
X117020400Y-86926628D01*
X117014000Y-86986159D01*
X114800500Y-86986159D01*
X114800500Y-82717074D01*
X117259500Y-82717074D01*
X117259500Y-82890926D01*
X117285918Y-83057717D01*
X117286698Y-83062642D01*
X117310419Y-83135649D01*
X117340420Y-83227981D01*
X117419347Y-83382884D01*
X117419349Y-83382887D01*
X117521536Y-83523535D01*
X117644464Y-83646463D01*
X117644467Y-83646465D01*
X117785116Y-83748653D01*
X117940019Y-83827580D01*
X118105362Y-83881303D01*
X118277074Y-83908500D01*
X118277077Y-83908500D01*
X118450923Y-83908500D01*
X118450926Y-83908500D01*
X118622638Y-83881303D01*
X118787981Y-83827580D01*
X118942884Y-83748653D01*
X119083533Y-83646465D01*
X119206465Y-83523533D01*
X119308653Y-83382884D01*
X119387580Y-83227981D01*
X119441303Y-83062638D01*
X119468500Y-82890926D01*
X119468500Y-82717074D01*
X119441303Y-82545362D01*
X119387580Y-82380019D01*
X119308653Y-82225116D01*
X119206465Y-82084467D01*
X119206463Y-82084464D01*
X119083535Y-81961536D01*
X118942887Y-81859349D01*
X118942886Y-81859348D01*
X118942884Y-81859347D01*
X118787981Y-81780420D01*
X118787978Y-81780419D01*
X118787976Y-81780418D01*
X118622642Y-81726698D01*
X118622640Y-81726697D01*
X118622638Y-81726697D01*
X118450926Y-81699500D01*
X118277074Y-81699500D01*
X118105362Y-81726697D01*
X118105360Y-81726697D01*
X118105357Y-81726698D01*
X117940023Y-81780418D01*
X117940017Y-81780421D01*
X117785112Y-81859349D01*
X117644464Y-81961536D01*
X117521536Y-82084464D01*
X117419349Y-82225112D01*
X117340421Y-82380017D01*
X117340418Y-82380023D01*
X117286698Y-82545357D01*
X117286697Y-82545360D01*
X117286697Y-82545362D01*
X117259500Y-82717074D01*
X114800500Y-82717074D01*
X114800500Y-75364999D01*
X130255500Y-75364999D01*
X130255500Y-75511001D01*
X130288824Y-75635372D01*
X130293289Y-75652033D01*
X130366286Y-75778467D01*
X130366294Y-75778477D01*
X130469522Y-75881705D01*
X130469527Y-75881709D01*
X130469529Y-75881711D01*
X130469530Y-75881712D01*
X130469532Y-75881713D01*
X130595966Y-75954710D01*
X130595968Y-75954710D01*
X130595971Y-75954712D01*
X130736999Y-75992500D01*
X130737001Y-75992500D01*
X130882999Y-75992500D01*
X130883001Y-75992500D01*
X131024029Y-75954712D01*
X131118999Y-75899880D01*
X131181999Y-75883000D01*
X135432652Y-75883000D01*
X135500773Y-75903002D01*
X135521747Y-75919905D01*
X137666135Y-78064293D01*
X137675369Y-78081204D01*
X137688739Y-78095084D01*
X137692033Y-78111720D01*
X137700161Y-78126605D01*
X137698786Y-78145826D01*
X137702529Y-78164729D01*
X137696305Y-78180505D01*
X137695096Y-78197420D01*
X137683548Y-78212845D01*
X137676477Y-78230773D01*
X137658233Y-78246661D01*
X137652549Y-78254256D01*
X137650647Y-78255653D01*
X137645515Y-78259346D01*
X137581529Y-78296289D01*
X137549009Y-78328808D01*
X137540734Y-78334765D01*
X137516476Y-78343298D01*
X137493910Y-78355621D01*
X137475963Y-78357550D01*
X137473761Y-78358325D01*
X137472200Y-78357954D01*
X137467127Y-78358500D01*
X133052212Y-78358500D01*
X132984091Y-78338498D01*
X132963117Y-78321595D01*
X131909405Y-77267882D01*
X131875379Y-77205570D01*
X131872500Y-77178787D01*
X131872500Y-77143000D01*
X131872500Y-77142999D01*
X131834712Y-77001971D01*
X131834710Y-77001968D01*
X131834710Y-77001966D01*
X131761713Y-76875532D01*
X131761705Y-76875522D01*
X131658477Y-76772294D01*
X131658467Y-76772286D01*
X131532033Y-76699289D01*
X131515372Y-76694824D01*
X131391001Y-76661500D01*
X131244999Y-76661500D01*
X131158686Y-76684627D01*
X131103966Y-76699289D01*
X130977532Y-76772286D01*
X130977522Y-76772294D01*
X130874294Y-76875522D01*
X130874286Y-76875532D01*
X130801289Y-77001966D01*
X130801288Y-77001971D01*
X130763500Y-77142999D01*
X130763500Y-77289001D01*
X130796824Y-77413372D01*
X130801289Y-77430033D01*
X130874286Y-77556467D01*
X130874294Y-77556477D01*
X130977522Y-77659705D01*
X130977527Y-77659709D01*
X130977529Y-77659711D01*
X130977530Y-77659712D01*
X130977532Y-77659713D01*
X131103966Y-77732710D01*
X131103968Y-77732710D01*
X131103971Y-77732712D01*
X131244999Y-77770500D01*
X131280787Y-77770500D01*
X131348908Y-77790502D01*
X131369882Y-77807405D01*
X132532313Y-78969835D01*
X132532334Y-78969858D01*
X132607746Y-79045270D01*
X132607751Y-79045274D01*
X132607753Y-79045276D01*
X132607754Y-79045277D01*
X132607756Y-79045278D01*
X132694741Y-79095499D01*
X132694743Y-79095499D01*
X132694746Y-79095501D01*
X132791775Y-79121500D01*
X134840654Y-79121500D01*
X134908775Y-79141502D01*
X134955268Y-79195158D01*
X134965372Y-79265432D01*
X134935878Y-79330012D01*
X134916496Y-79348118D01*
X134900427Y-79360229D01*
X134892861Y-79362257D01*
X134805868Y-79412482D01*
X134734839Y-79483511D01*
X134734837Y-79483513D01*
X134728615Y-79489734D01*
X134728611Y-79489738D01*
X131320030Y-82898318D01*
X131320028Y-82898321D01*
X131266729Y-82951619D01*
X131266721Y-82951629D01*
X131216500Y-83038614D01*
X131211064Y-83058901D01*
X131199609Y-83101655D01*
X131190500Y-83135649D01*
X131190500Y-86410223D01*
X131190499Y-86410223D01*
X131216498Y-86507251D01*
X131216501Y-86507258D01*
X131237898Y-86544318D01*
X131237898Y-86544319D01*
X131266721Y-86594243D01*
X131266723Y-86594245D01*
X131266724Y-86594247D01*
X131392975Y-86720498D01*
X131488595Y-86816117D01*
X131522620Y-86878430D01*
X131525500Y-86905213D01*
X131525500Y-86941001D01*
X131550829Y-87035532D01*
X131563289Y-87082033D01*
X131636286Y-87208467D01*
X131636294Y-87208477D01*
X131739522Y-87311705D01*
X131739527Y-87311709D01*
X131739529Y-87311711D01*
X131739530Y-87311712D01*
X131739532Y-87311713D01*
X131865966Y-87384710D01*
X131865968Y-87384710D01*
X131865971Y-87384712D01*
X132006999Y-87422500D01*
X132007001Y-87422500D01*
X132152999Y-87422500D01*
X132153001Y-87422500D01*
X132294029Y-87384712D01*
X132294032Y-87384710D01*
X132294033Y-87384710D01*
X132378351Y-87336029D01*
X132420471Y-87311711D01*
X132523711Y-87208471D01*
X132576313Y-87117362D01*
X132596710Y-87082033D01*
X132596710Y-87082032D01*
X132596712Y-87082029D01*
X132634500Y-86941001D01*
X132634500Y-86794999D01*
X132596712Y-86653971D01*
X132596710Y-86653968D01*
X132596710Y-86653966D01*
X132523713Y-86527532D01*
X132523705Y-86527522D01*
X132420477Y-86424294D01*
X132420467Y-86424286D01*
X132294033Y-86351289D01*
X132236980Y-86336002D01*
X132153001Y-86313500D01*
X132152999Y-86313500D01*
X132117213Y-86313500D01*
X132087297Y-86304716D01*
X132056828Y-86298088D01*
X132051732Y-86294273D01*
X132049092Y-86293498D01*
X132028118Y-86276595D01*
X131990405Y-86238882D01*
X131956379Y-86176570D01*
X131953500Y-86149787D01*
X131953500Y-83396085D01*
X131973502Y-83327964D01*
X131990400Y-83306994D01*
X132700368Y-82597025D01*
X132762679Y-82563002D01*
X132833494Y-82568066D01*
X132890330Y-82610613D01*
X132898579Y-82623119D01*
X132906284Y-82636464D01*
X132906294Y-82636477D01*
X133009522Y-82739705D01*
X133009527Y-82739709D01*
X133009529Y-82739711D01*
X133009530Y-82739712D01*
X133009532Y-82739713D01*
X133143124Y-82816842D01*
X133142500Y-82817921D01*
X133173519Y-82838647D01*
X133877276Y-83542404D01*
X133911302Y-83604716D01*
X133906237Y-83675531D01*
X133877276Y-83720595D01*
X133427515Y-84170355D01*
X133396500Y-84191081D01*
X133397122Y-84192159D01*
X133263532Y-84269286D01*
X133263522Y-84269294D01*
X133160294Y-84372522D01*
X133160286Y-84372532D01*
X133087289Y-84498966D01*
X133066162Y-84577813D01*
X133049500Y-84639999D01*
X133049500Y-84786001D01*
X133075027Y-84881271D01*
X133087289Y-84927033D01*
X133160286Y-85053467D01*
X133160294Y-85053477D01*
X133263522Y-85156705D01*
X133263527Y-85156709D01*
X133263529Y-85156711D01*
X133263530Y-85156712D01*
X133263532Y-85156713D01*
X133386138Y-85227500D01*
X133435131Y-85278883D01*
X133448567Y-85348596D01*
X133422180Y-85414507D01*
X133383691Y-85443682D01*
X133385122Y-85446159D01*
X133251532Y-85523286D01*
X133251522Y-85523294D01*
X133148294Y-85626522D01*
X133148286Y-85626532D01*
X133075289Y-85752966D01*
X133054162Y-85831813D01*
X133037500Y-85893999D01*
X133037500Y-86040001D01*
X133050118Y-86087092D01*
X133075289Y-86181033D01*
X133148286Y-86307467D01*
X133148294Y-86307477D01*
X133251522Y-86410705D01*
X133251527Y-86410709D01*
X133251529Y-86410711D01*
X133251530Y-86410712D01*
X133251532Y-86410713D01*
X133377966Y-86483710D01*
X133377968Y-86483710D01*
X133377971Y-86483712D01*
X133518999Y-86521500D01*
X133519001Y-86521500D01*
X133664999Y-86521500D01*
X133665001Y-86521500D01*
X133806029Y-86483712D01*
X133806032Y-86483710D01*
X133806033Y-86483710D01*
X133914125Y-86421303D01*
X133932471Y-86410711D01*
X134035711Y-86307471D01*
X134079807Y-86231092D01*
X134112842Y-86173876D01*
X134113922Y-86174500D01*
X134134642Y-86143484D01*
X135280901Y-84997226D01*
X135347847Y-84881274D01*
X135382500Y-84751945D01*
X135382500Y-84618055D01*
X135382500Y-84454500D01*
X135402502Y-84386379D01*
X135456158Y-84339886D01*
X135508500Y-84328500D01*
X138303500Y-84328500D01*
X138371621Y-84348502D01*
X138418114Y-84402158D01*
X138429500Y-84454500D01*
X138429500Y-87817055D01*
X138429500Y-87950945D01*
X138464153Y-88080274D01*
X138464154Y-88080276D01*
X138464155Y-88080278D01*
X138531096Y-88196223D01*
X138531104Y-88196233D01*
X140019747Y-89684875D01*
X140053772Y-89747187D01*
X140048708Y-89818002D01*
X140006161Y-89874838D01*
X139993653Y-89883088D01*
X139925222Y-89922597D01*
X139925209Y-89922607D01*
X139821981Y-90025835D01*
X139821973Y-90025845D01*
X139748977Y-90152278D01*
X139748975Y-90152282D01*
X139748975Y-90152284D01*
X139712224Y-90289442D01*
X139675272Y-90350064D01*
X139623129Y-90378536D01*
X139485971Y-90415288D01*
X139485969Y-90415288D01*
X139485965Y-90415290D01*
X139359532Y-90488286D01*
X139359522Y-90488294D01*
X139256294Y-90591522D01*
X139256286Y-90591532D01*
X139183289Y-90717966D01*
X139183288Y-90717971D01*
X139145500Y-90858999D01*
X139145500Y-91005001D01*
X139149653Y-91020500D01*
X139183289Y-91146033D01*
X139256286Y-91272467D01*
X139256294Y-91272477D01*
X139359522Y-91375705D01*
X139359527Y-91375709D01*
X139359529Y-91375711D01*
X139359530Y-91375712D01*
X139359532Y-91375713D01*
X139485966Y-91448710D01*
X139485968Y-91448710D01*
X139485971Y-91448712D01*
X139626999Y-91486500D01*
X139662787Y-91486500D01*
X139730908Y-91506502D01*
X139751882Y-91523405D01*
X141930313Y-93701835D01*
X141930334Y-93701858D01*
X142005746Y-93777270D01*
X142005751Y-93777274D01*
X142005753Y-93777276D01*
X142005754Y-93777277D01*
X142005756Y-93777278D01*
X142092741Y-93827499D01*
X142092743Y-93827499D01*
X142092746Y-93827501D01*
X142189775Y-93853500D01*
X142189777Y-93853500D01*
X151174785Y-93853500D01*
X151242906Y-93873502D01*
X151289399Y-93927158D01*
X151299503Y-93997432D01*
X151270009Y-94062012D01*
X151263881Y-94068595D01*
X150888882Y-94443595D01*
X150826569Y-94477620D01*
X150799786Y-94480500D01*
X141554212Y-94480500D01*
X141486091Y-94460498D01*
X141465117Y-94443595D01*
X135973405Y-88951882D01*
X135939379Y-88889570D01*
X135936500Y-88862787D01*
X135936500Y-88827000D01*
X135932347Y-88811500D01*
X135898712Y-88685971D01*
X135898710Y-88685968D01*
X135898710Y-88685966D01*
X135825713Y-88559532D01*
X135825705Y-88559522D01*
X135722477Y-88456294D01*
X135722467Y-88456286D01*
X135596033Y-88383289D01*
X135579372Y-88378824D01*
X135455001Y-88345500D01*
X135308999Y-88345500D01*
X135222686Y-88368627D01*
X135167966Y-88383289D01*
X135041532Y-88456286D01*
X135041522Y-88456294D01*
X134938294Y-88559522D01*
X134938286Y-88559532D01*
X134865289Y-88685966D01*
X134865288Y-88685971D01*
X134827500Y-88826999D01*
X134827500Y-88973001D01*
X134854438Y-89073535D01*
X134865289Y-89114033D01*
X134938286Y-89240467D01*
X134938294Y-89240477D01*
X135041522Y-89343705D01*
X135041527Y-89343709D01*
X135041529Y-89343711D01*
X135041530Y-89343712D01*
X135041532Y-89343713D01*
X135167966Y-89416710D01*
X135167968Y-89416710D01*
X135167971Y-89416712D01*
X135308999Y-89454500D01*
X135344787Y-89454500D01*
X135412908Y-89474502D01*
X135433882Y-89491405D01*
X141034313Y-95091835D01*
X141034334Y-95091858D01*
X141109746Y-95167270D01*
X141109751Y-95167274D01*
X141109753Y-95167276D01*
X141109754Y-95167277D01*
X141109756Y-95167278D01*
X141196741Y-95217499D01*
X141196743Y-95217499D01*
X141196746Y-95217501D01*
X141293775Y-95243500D01*
X141293777Y-95243500D01*
X151060223Y-95243500D01*
X151060225Y-95243500D01*
X151157254Y-95217501D01*
X151157257Y-95217499D01*
X151157258Y-95217499D01*
X151200750Y-95192388D01*
X151244247Y-95167276D01*
X151315276Y-95096247D01*
X151332996Y-95078527D01*
X151332998Y-95078524D01*
X151502448Y-94909074D01*
X197269500Y-94909074D01*
X197269500Y-95082926D01*
X197296697Y-95254638D01*
X197350420Y-95419981D01*
X197350421Y-95419982D01*
X197429349Y-95574887D01*
X197531536Y-95715535D01*
X197654464Y-95838463D01*
X197654467Y-95838465D01*
X197795116Y-95940653D01*
X197950019Y-96019580D01*
X198115362Y-96073303D01*
X198287074Y-96100500D01*
X198287077Y-96100500D01*
X198460923Y-96100500D01*
X198460926Y-96100500D01*
X198632638Y-96073303D01*
X198797981Y-96019580D01*
X198952884Y-95940653D01*
X199093533Y-95838465D01*
X199216465Y-95715533D01*
X199318653Y-95574884D01*
X199397580Y-95419981D01*
X199451303Y-95254638D01*
X199478500Y-95082926D01*
X199478500Y-94909074D01*
X199809500Y-94909074D01*
X199809500Y-95082926D01*
X199836697Y-95254638D01*
X199890420Y-95419981D01*
X199890421Y-95419982D01*
X199969349Y-95574887D01*
X200071536Y-95715535D01*
X200194464Y-95838463D01*
X200194467Y-95838465D01*
X200335116Y-95940653D01*
X200490019Y-96019580D01*
X200655362Y-96073303D01*
X200827074Y-96100500D01*
X200827077Y-96100500D01*
X201000923Y-96100500D01*
X201000926Y-96100500D01*
X201172638Y-96073303D01*
X201337981Y-96019580D01*
X201492884Y-95940653D01*
X201633533Y-95838465D01*
X201756465Y-95715533D01*
X201858653Y-95574884D01*
X201937580Y-95419981D01*
X201991303Y-95254638D01*
X202018500Y-95082926D01*
X202018500Y-94909074D01*
X201991303Y-94737362D01*
X201937580Y-94572019D01*
X201858653Y-94417116D01*
X201756465Y-94276467D01*
X201756463Y-94276464D01*
X201633535Y-94153536D01*
X201492887Y-94051349D01*
X201492886Y-94051348D01*
X201492884Y-94051347D01*
X201337981Y-93972420D01*
X201337978Y-93972419D01*
X201337976Y-93972418D01*
X201172642Y-93918698D01*
X201172640Y-93918697D01*
X201172638Y-93918697D01*
X201000926Y-93891500D01*
X200827074Y-93891500D01*
X200655362Y-93918697D01*
X200655360Y-93918697D01*
X200655357Y-93918698D01*
X200490023Y-93972418D01*
X200490017Y-93972421D01*
X200335112Y-94051349D01*
X200194464Y-94153536D01*
X200071536Y-94276464D01*
X199969349Y-94417112D01*
X199890421Y-94572017D01*
X199890418Y-94572023D01*
X199836698Y-94737357D01*
X199836697Y-94737360D01*
X199836697Y-94737362D01*
X199809500Y-94909074D01*
X199478500Y-94909074D01*
X199451303Y-94737362D01*
X199397580Y-94572019D01*
X199318653Y-94417116D01*
X199216465Y-94276467D01*
X199216463Y-94276464D01*
X199093535Y-94153536D01*
X198952887Y-94051349D01*
X198952886Y-94051348D01*
X198952884Y-94051347D01*
X198797981Y-93972420D01*
X198797978Y-93972419D01*
X198797976Y-93972418D01*
X198632642Y-93918698D01*
X198632640Y-93918697D01*
X198632638Y-93918697D01*
X198460926Y-93891500D01*
X198287074Y-93891500D01*
X198115362Y-93918697D01*
X198115360Y-93918697D01*
X198115357Y-93918698D01*
X197950023Y-93972418D01*
X197950017Y-93972421D01*
X197795112Y-94051349D01*
X197654464Y-94153536D01*
X197531536Y-94276464D01*
X197429349Y-94417112D01*
X197350421Y-94572017D01*
X197350418Y-94572023D01*
X197296698Y-94737357D01*
X197296697Y-94737360D01*
X197296697Y-94737362D01*
X197269500Y-94909074D01*
X151502448Y-94909074D01*
X152504523Y-93906999D01*
X170133500Y-93906999D01*
X170133500Y-94053001D01*
X170160438Y-94153535D01*
X170171289Y-94194033D01*
X170244286Y-94320467D01*
X170244294Y-94320477D01*
X170347522Y-94423705D01*
X170347527Y-94423709D01*
X170347529Y-94423711D01*
X170347530Y-94423712D01*
X170347532Y-94423713D01*
X170473966Y-94496710D01*
X170473968Y-94496710D01*
X170473971Y-94496712D01*
X170614999Y-94534500D01*
X170615001Y-94534500D01*
X170760999Y-94534500D01*
X170761001Y-94534500D01*
X170902029Y-94496712D01*
X170902032Y-94496710D01*
X170902033Y-94496710D01*
X170994031Y-94443595D01*
X171028471Y-94423711D01*
X171131711Y-94320471D01*
X171204712Y-94194029D01*
X171204711Y-94194029D01*
X171208842Y-94186876D01*
X171209923Y-94187500D01*
X171230644Y-94156482D01*
X173018052Y-92369074D01*
X197269500Y-92369074D01*
X197269500Y-92542926D01*
X197294583Y-92701288D01*
X197296698Y-92714642D01*
X197316078Y-92774289D01*
X197350420Y-92879981D01*
X197429347Y-93034884D01*
X197429349Y-93034887D01*
X197531536Y-93175535D01*
X197654464Y-93298463D01*
X197654467Y-93298465D01*
X197795116Y-93400653D01*
X197950019Y-93479580D01*
X198115362Y-93533303D01*
X198287074Y-93560500D01*
X198287077Y-93560500D01*
X198460923Y-93560500D01*
X198460926Y-93560500D01*
X198632638Y-93533303D01*
X198797981Y-93479580D01*
X198952884Y-93400653D01*
X199093533Y-93298465D01*
X199216465Y-93175533D01*
X199318653Y-93034884D01*
X199397580Y-92879981D01*
X199451303Y-92714638D01*
X199478500Y-92542926D01*
X199478500Y-92369074D01*
X199809500Y-92369074D01*
X199809500Y-92542926D01*
X199834583Y-92701288D01*
X199836698Y-92714642D01*
X199856078Y-92774289D01*
X199890420Y-92879981D01*
X199969347Y-93034884D01*
X199969349Y-93034887D01*
X200071536Y-93175535D01*
X200194464Y-93298463D01*
X200194467Y-93298465D01*
X200335116Y-93400653D01*
X200490019Y-93479580D01*
X200655362Y-93533303D01*
X200827074Y-93560500D01*
X200827077Y-93560500D01*
X201000923Y-93560500D01*
X201000926Y-93560500D01*
X201172638Y-93533303D01*
X201337981Y-93479580D01*
X201492884Y-93400653D01*
X201633533Y-93298465D01*
X201756465Y-93175533D01*
X201858653Y-93034884D01*
X201937580Y-92879981D01*
X201991303Y-92714638D01*
X202018500Y-92542926D01*
X202018500Y-92369074D01*
X201991303Y-92197362D01*
X201937580Y-92032019D01*
X201858653Y-91877116D01*
X201756465Y-91736467D01*
X201756463Y-91736464D01*
X201633535Y-91613536D01*
X201492887Y-91511349D01*
X201492886Y-91511348D01*
X201492884Y-91511347D01*
X201337981Y-91432420D01*
X201337978Y-91432419D01*
X201337976Y-91432418D01*
X201172642Y-91378698D01*
X201172640Y-91378697D01*
X201172638Y-91378697D01*
X201000926Y-91351500D01*
X200827074Y-91351500D01*
X200655362Y-91378697D01*
X200655360Y-91378697D01*
X200655357Y-91378698D01*
X200490023Y-91432418D01*
X200490017Y-91432421D01*
X200335112Y-91511349D01*
X200194464Y-91613536D01*
X200071536Y-91736464D01*
X199969349Y-91877112D01*
X199890421Y-92032017D01*
X199890418Y-92032023D01*
X199836698Y-92197357D01*
X199836697Y-92197360D01*
X199836697Y-92197362D01*
X199809500Y-92369074D01*
X199478500Y-92369074D01*
X199451303Y-92197362D01*
X199397580Y-92032019D01*
X199318653Y-91877116D01*
X199216465Y-91736467D01*
X199216463Y-91736464D01*
X199093535Y-91613536D01*
X198952887Y-91511349D01*
X198952886Y-91511348D01*
X198952884Y-91511347D01*
X198797981Y-91432420D01*
X198797978Y-91432419D01*
X198797976Y-91432418D01*
X198632642Y-91378698D01*
X198632640Y-91378697D01*
X198632638Y-91378697D01*
X198460926Y-91351500D01*
X198287074Y-91351500D01*
X198115362Y-91378697D01*
X198115360Y-91378697D01*
X198115357Y-91378698D01*
X197950023Y-91432418D01*
X197950017Y-91432421D01*
X197795112Y-91511349D01*
X197654464Y-91613536D01*
X197531536Y-91736464D01*
X197429349Y-91877112D01*
X197350421Y-92032017D01*
X197350418Y-92032023D01*
X197296698Y-92197357D01*
X197296697Y-92197360D01*
X197296697Y-92197362D01*
X197269500Y-92369074D01*
X173018052Y-92369074D01*
X175558053Y-89829074D01*
X197269500Y-89829074D01*
X197269500Y-90002926D01*
X197296697Y-90174638D01*
X197350420Y-90339981D01*
X197429347Y-90494884D01*
X197429349Y-90494887D01*
X197531536Y-90635535D01*
X197654464Y-90758463D01*
X197654467Y-90758465D01*
X197795116Y-90860653D01*
X197950019Y-90939580D01*
X198115362Y-90993303D01*
X198287074Y-91020500D01*
X198287077Y-91020500D01*
X198460923Y-91020500D01*
X198460926Y-91020500D01*
X198632638Y-90993303D01*
X198797981Y-90939580D01*
X198952884Y-90860653D01*
X199093533Y-90758465D01*
X199216465Y-90635533D01*
X199318653Y-90494884D01*
X199397580Y-90339981D01*
X199451303Y-90174638D01*
X199478500Y-90002926D01*
X199478500Y-89829074D01*
X199809500Y-89829074D01*
X199809500Y-90002926D01*
X199836697Y-90174638D01*
X199890420Y-90339981D01*
X199969347Y-90494884D01*
X199969349Y-90494887D01*
X200071536Y-90635535D01*
X200194464Y-90758463D01*
X200194467Y-90758465D01*
X200335116Y-90860653D01*
X200490019Y-90939580D01*
X200655362Y-90993303D01*
X200827074Y-91020500D01*
X200827077Y-91020500D01*
X201000923Y-91020500D01*
X201000926Y-91020500D01*
X201172638Y-90993303D01*
X201337981Y-90939580D01*
X201492884Y-90860653D01*
X201633533Y-90758465D01*
X201756465Y-90635533D01*
X201858653Y-90494884D01*
X201937580Y-90339981D01*
X201991303Y-90174638D01*
X202018500Y-90002926D01*
X202018500Y-89829074D01*
X201991303Y-89657362D01*
X201937580Y-89492019D01*
X201858653Y-89337116D01*
X201788433Y-89240467D01*
X201756463Y-89196464D01*
X201633535Y-89073536D01*
X201492887Y-88971349D01*
X201492886Y-88971348D01*
X201492884Y-88971347D01*
X201337981Y-88892420D01*
X201337978Y-88892419D01*
X201337976Y-88892418D01*
X201172642Y-88838698D01*
X201172640Y-88838697D01*
X201172638Y-88838697D01*
X201000926Y-88811500D01*
X200827074Y-88811500D01*
X200655362Y-88838697D01*
X200655360Y-88838697D01*
X200655357Y-88838698D01*
X200490023Y-88892418D01*
X200490017Y-88892421D01*
X200335112Y-88971349D01*
X200194464Y-89073536D01*
X200071536Y-89196464D01*
X199969349Y-89337112D01*
X199890421Y-89492017D01*
X199890418Y-89492023D01*
X199836698Y-89657357D01*
X199836697Y-89657360D01*
X199836697Y-89657362D01*
X199809500Y-89829074D01*
X199478500Y-89829074D01*
X199451303Y-89657362D01*
X199397580Y-89492019D01*
X199318653Y-89337116D01*
X199248433Y-89240467D01*
X199216463Y-89196464D01*
X199093535Y-89073536D01*
X198952887Y-88971349D01*
X198952886Y-88971348D01*
X198952884Y-88971347D01*
X198797981Y-88892420D01*
X198797978Y-88892419D01*
X198797976Y-88892418D01*
X198632642Y-88838698D01*
X198632640Y-88838697D01*
X198632638Y-88838697D01*
X198460926Y-88811500D01*
X198287074Y-88811500D01*
X198115362Y-88838697D01*
X198115360Y-88838697D01*
X198115357Y-88838698D01*
X197950023Y-88892418D01*
X197950017Y-88892421D01*
X197795112Y-88971349D01*
X197654464Y-89073536D01*
X197531536Y-89196464D01*
X197429349Y-89337112D01*
X197350421Y-89492017D01*
X197350418Y-89492023D01*
X197296698Y-89657357D01*
X197296697Y-89657360D01*
X197296697Y-89657362D01*
X197269500Y-89829074D01*
X175558053Y-89829074D01*
X177465723Y-87921405D01*
X177528035Y-87887379D01*
X177554818Y-87884500D01*
X197316271Y-87884500D01*
X197384392Y-87904502D01*
X197426370Y-87950899D01*
X197426759Y-87950661D01*
X197428027Y-87952731D01*
X197428535Y-87953292D01*
X197429343Y-87954877D01*
X197429347Y-87954884D01*
X197531536Y-88095535D01*
X197654464Y-88218463D01*
X197654467Y-88218465D01*
X197795116Y-88320653D01*
X197950019Y-88399580D01*
X198115362Y-88453303D01*
X198287074Y-88480500D01*
X198287077Y-88480500D01*
X198460923Y-88480500D01*
X198460926Y-88480500D01*
X198632638Y-88453303D01*
X198797981Y-88399580D01*
X198952884Y-88320653D01*
X199093533Y-88218465D01*
X199216465Y-88095533D01*
X199318653Y-87954884D01*
X199318980Y-87954240D01*
X199319465Y-87953292D01*
X199319931Y-87952798D01*
X199321241Y-87950661D01*
X199321690Y-87950936D01*
X199368216Y-87901679D01*
X199431729Y-87884500D01*
X199856271Y-87884500D01*
X199924392Y-87904502D01*
X199966370Y-87950899D01*
X199966759Y-87950661D01*
X199968027Y-87952731D01*
X199968535Y-87953292D01*
X199969343Y-87954877D01*
X199969347Y-87954884D01*
X200071536Y-88095535D01*
X200194464Y-88218463D01*
X200194467Y-88218465D01*
X200335116Y-88320653D01*
X200490019Y-88399580D01*
X200655362Y-88453303D01*
X200827074Y-88480500D01*
X200827077Y-88480500D01*
X201000923Y-88480500D01*
X201000926Y-88480500D01*
X201172638Y-88453303D01*
X201337981Y-88399580D01*
X201492884Y-88320653D01*
X201633533Y-88218465D01*
X201756465Y-88095533D01*
X201858653Y-87954884D01*
X201937580Y-87799981D01*
X201991303Y-87634638D01*
X202018500Y-87462926D01*
X202018500Y-87289074D01*
X201991303Y-87117362D01*
X201937580Y-86952019D01*
X201858653Y-86797116D01*
X201817519Y-86740500D01*
X201756463Y-86656464D01*
X201633535Y-86533536D01*
X201492887Y-86431349D01*
X201492886Y-86431348D01*
X201492884Y-86431347D01*
X201337981Y-86352420D01*
X201337978Y-86352419D01*
X201335972Y-86351588D01*
X201335327Y-86351068D01*
X201333570Y-86350173D01*
X201333758Y-86349803D01*
X201280693Y-86307038D01*
X201258275Y-86239673D01*
X201275836Y-86170883D01*
X201327800Y-86122506D01*
X201345260Y-86115347D01*
X201432222Y-86087092D01*
X201621555Y-85990621D01*
X201621557Y-85990620D01*
X201675716Y-85951270D01*
X201675717Y-85951269D01*
X201043410Y-85318962D01*
X201106993Y-85301925D01*
X201221007Y-85236099D01*
X201314099Y-85143007D01*
X201379925Y-85028993D01*
X201396962Y-84965410D01*
X202029269Y-85597717D01*
X202029270Y-85597716D01*
X202068620Y-85543557D01*
X202068621Y-85543555D01*
X202165092Y-85354221D01*
X202165095Y-85354215D01*
X202230756Y-85152131D01*
X202264000Y-84942243D01*
X202264000Y-84729756D01*
X202230756Y-84519868D01*
X202165095Y-84317784D01*
X202165092Y-84317778D01*
X202068622Y-84128446D01*
X202029269Y-84074282D01*
X201396962Y-84706589D01*
X201379925Y-84643007D01*
X201314099Y-84528993D01*
X201221007Y-84435901D01*
X201106993Y-84370075D01*
X201043409Y-84353037D01*
X201675716Y-83720730D01*
X201675716Y-83720729D01*
X201621553Y-83681377D01*
X201615451Y-83678268D01*
X201563835Y-83629520D01*
X201546768Y-83560605D01*
X201569668Y-83493404D01*
X201615451Y-83453732D01*
X201621556Y-83450621D01*
X201621557Y-83450620D01*
X201675716Y-83411270D01*
X201675717Y-83411269D01*
X201043410Y-82778962D01*
X201106993Y-82761925D01*
X201221007Y-82696099D01*
X201314099Y-82603007D01*
X201379925Y-82488993D01*
X201396962Y-82425410D01*
X202029269Y-83057717D01*
X202029270Y-83057716D01*
X202068620Y-83003557D01*
X202068621Y-83003555D01*
X202165092Y-82814221D01*
X202165095Y-82814215D01*
X202230756Y-82612131D01*
X202264000Y-82402243D01*
X202264000Y-82189756D01*
X202230756Y-81979868D01*
X202165095Y-81777784D01*
X202165092Y-81777778D01*
X202068622Y-81588446D01*
X202029269Y-81534282D01*
X201396962Y-82166589D01*
X201379925Y-82103007D01*
X201314099Y-81988993D01*
X201221007Y-81895901D01*
X201106993Y-81830075D01*
X201043409Y-81813037D01*
X201675716Y-81180730D01*
X201675716Y-81180729D01*
X201621553Y-81141377D01*
X201432221Y-81044907D01*
X201432215Y-81044904D01*
X201230129Y-80979243D01*
X201230133Y-80979243D01*
X201020244Y-80946000D01*
X200807756Y-80946000D01*
X200597868Y-80979243D01*
X200395784Y-81044904D01*
X200395778Y-81044907D01*
X200206447Y-81141376D01*
X200206446Y-81141377D01*
X200152282Y-81180729D01*
X200784591Y-81813037D01*
X200721007Y-81830075D01*
X200606993Y-81895901D01*
X200513901Y-81988993D01*
X200448075Y-82103007D01*
X200431037Y-82166590D01*
X199794173Y-81529726D01*
X199789990Y-81528847D01*
X199768335Y-81529299D01*
X199755940Y-81521693D01*
X199741709Y-81518704D01*
X199726283Y-81503496D01*
X199707822Y-81492169D01*
X199698419Y-81476026D01*
X199691151Y-81468861D01*
X199687808Y-81462410D01*
X199604370Y-81289350D01*
X199566316Y-81227655D01*
X199566311Y-81227649D01*
X199442350Y-81103688D01*
X199442344Y-81103683D01*
X199293122Y-81011642D01*
X199126691Y-80956493D01*
X199023987Y-80946000D01*
X198624000Y-80946000D01*
X198624000Y-81862988D01*
X198566993Y-81830075D01*
X198439826Y-81796000D01*
X198308174Y-81796000D01*
X198181007Y-81830075D01*
X198124000Y-81862988D01*
X198124000Y-80946000D01*
X197724021Y-80946000D01*
X197621308Y-80956493D01*
X197454877Y-81011642D01*
X197305655Y-81103683D01*
X197305649Y-81103688D01*
X197181688Y-81227649D01*
X197181683Y-81227655D01*
X197089642Y-81376877D01*
X197034493Y-81543308D01*
X197024000Y-81646012D01*
X197024000Y-82046000D01*
X197940988Y-82046000D01*
X197908075Y-82103007D01*
X197874000Y-82230174D01*
X197874000Y-82361826D01*
X197908075Y-82488993D01*
X197940988Y-82546000D01*
X197024001Y-82546000D01*
X197024001Y-82945978D01*
X197034493Y-83048691D01*
X197089642Y-83215122D01*
X197181683Y-83364344D01*
X197181688Y-83364350D01*
X197305649Y-83488311D01*
X197305655Y-83488316D01*
X197454877Y-83580357D01*
X197525322Y-83603700D01*
X197583693Y-83644114D01*
X197610949Y-83709671D01*
X197611096Y-83719543D01*
X198244591Y-84353037D01*
X198181007Y-84370075D01*
X198066993Y-84435901D01*
X197973901Y-84528993D01*
X197908075Y-84643007D01*
X197891037Y-84706590D01*
X197258729Y-84074282D01*
X197219377Y-84128446D01*
X197219376Y-84128447D01*
X197122907Y-84317778D01*
X197122904Y-84317784D01*
X197057243Y-84519868D01*
X197024000Y-84729756D01*
X197024000Y-84942243D01*
X197057243Y-85152131D01*
X197122904Y-85354215D01*
X197122907Y-85354221D01*
X197219377Y-85543553D01*
X197258729Y-85597716D01*
X197258730Y-85597716D01*
X197891037Y-84965409D01*
X197908075Y-85028993D01*
X197973901Y-85143007D01*
X198066993Y-85236099D01*
X198181007Y-85301925D01*
X198244590Y-85318962D01*
X197612282Y-85951269D01*
X197666446Y-85990622D01*
X197855778Y-86087092D01*
X197855787Y-86087096D01*
X197942739Y-86115348D01*
X198001345Y-86155421D01*
X198028983Y-86220817D01*
X198016877Y-86290774D01*
X197968871Y-86343081D01*
X197952033Y-86351585D01*
X197950030Y-86352414D01*
X197795112Y-86431349D01*
X197654464Y-86533536D01*
X197531536Y-86656464D01*
X197429347Y-86797115D01*
X197429343Y-86797122D01*
X197428535Y-86798708D01*
X197428068Y-86799201D01*
X197426759Y-86801339D01*
X197426309Y-86801063D01*
X197379784Y-86850321D01*
X197316271Y-86867500D01*
X177225054Y-86867500D01*
X177122294Y-86895034D01*
X177122293Y-86895033D01*
X177095732Y-86902151D01*
X177095727Y-86902152D01*
X177095726Y-86902153D01*
X177095725Y-86902153D01*
X177095721Y-86902155D01*
X176979776Y-86969096D01*
X176979766Y-86969104D01*
X170511517Y-93437353D01*
X170480500Y-93458081D01*
X170481122Y-93459159D01*
X170347532Y-93536286D01*
X170347522Y-93536294D01*
X170244294Y-93639522D01*
X170244286Y-93639532D01*
X170171289Y-93765966D01*
X170168260Y-93777270D01*
X170133500Y-93906999D01*
X152504523Y-93906999D01*
X157025698Y-89385823D01*
X157088008Y-89351799D01*
X157158823Y-89356864D01*
X157177782Y-89365796D01*
X157265971Y-89416712D01*
X157406999Y-89454500D01*
X157407001Y-89454500D01*
X157552999Y-89454500D01*
X157553001Y-89454500D01*
X157694029Y-89416712D01*
X157694032Y-89416710D01*
X157694033Y-89416710D01*
X157806462Y-89351799D01*
X157820471Y-89343711D01*
X157923711Y-89240471D01*
X157996712Y-89114029D01*
X158034500Y-88973001D01*
X158034500Y-88826999D01*
X157996712Y-88685971D01*
X157996710Y-88685968D01*
X157996710Y-88685966D01*
X157923713Y-88559532D01*
X157923705Y-88559522D01*
X157820477Y-88456294D01*
X157820467Y-88456286D01*
X157694033Y-88383289D01*
X157677372Y-88378824D01*
X157553001Y-88345500D01*
X157406999Y-88345500D01*
X157320686Y-88368627D01*
X157265966Y-88383289D01*
X157139532Y-88456286D01*
X157139522Y-88456294D01*
X157114222Y-88481595D01*
X157051910Y-88515621D01*
X157025127Y-88518500D01*
X156921775Y-88518500D01*
X156862390Y-88534412D01*
X156824741Y-88544500D01*
X156737756Y-88594721D01*
X156737751Y-88594725D01*
X156702238Y-88630239D01*
X156666724Y-88665753D01*
X156666722Y-88665755D01*
X152145432Y-93187043D01*
X152083120Y-93221069D01*
X152012304Y-93216004D01*
X151955469Y-93173457D01*
X151934631Y-93130562D01*
X151900712Y-93003971D01*
X151900710Y-93003968D01*
X151900710Y-93003966D01*
X151827713Y-92877532D01*
X151827705Y-92877522D01*
X151724477Y-92774294D01*
X151724467Y-92774286D01*
X151598033Y-92701289D01*
X151585480Y-92697925D01*
X151471436Y-92667367D01*
X151410815Y-92630417D01*
X151379794Y-92566557D01*
X151388222Y-92496062D01*
X151414949Y-92456572D01*
X151713119Y-92158402D01*
X151775429Y-92124379D01*
X151802212Y-92121500D01*
X151837999Y-92121500D01*
X151838001Y-92121500D01*
X151979029Y-92083712D01*
X151979032Y-92083710D01*
X151979033Y-92083710D01*
X152092844Y-92018001D01*
X152105471Y-92010711D01*
X152208711Y-91907471D01*
X152281712Y-91781029D01*
X152319500Y-91640001D01*
X152319500Y-91493999D01*
X152281712Y-91352971D01*
X152281710Y-91352968D01*
X152281710Y-91352966D01*
X152208713Y-91226532D01*
X152208705Y-91226522D01*
X152105477Y-91123294D01*
X152105467Y-91123286D01*
X151979033Y-91050289D01*
X151962372Y-91045824D01*
X151838001Y-91012500D01*
X151691999Y-91012500D01*
X151605686Y-91035627D01*
X151550966Y-91050289D01*
X151424532Y-91123286D01*
X151424522Y-91123294D01*
X151321294Y-91226522D01*
X151321286Y-91226532D01*
X151248289Y-91352966D01*
X151235056Y-91402353D01*
X151212510Y-91486500D01*
X151210500Y-91494000D01*
X151210500Y-91529787D01*
X151190498Y-91597908D01*
X151173595Y-91618882D01*
X150246882Y-92545595D01*
X150184570Y-92579621D01*
X150157787Y-92582500D01*
X143449873Y-92582500D01*
X143381752Y-92562498D01*
X143335259Y-92508842D01*
X143325155Y-92438568D01*
X143354649Y-92373988D01*
X143360778Y-92367405D01*
X143442705Y-92285477D01*
X143442711Y-92285471D01*
X143493581Y-92197362D01*
X143515710Y-92159033D01*
X143515710Y-92159032D01*
X143515712Y-92159029D01*
X143553500Y-92018001D01*
X143553500Y-91871999D01*
X143515712Y-91730971D01*
X143515710Y-91730968D01*
X143515710Y-91730966D01*
X143442713Y-91604532D01*
X143442705Y-91604522D01*
X143339477Y-91501294D01*
X143339467Y-91501286D01*
X143234803Y-91440859D01*
X143213029Y-91428288D01*
X143213028Y-91428287D01*
X143205877Y-91424159D01*
X143206499Y-91423081D01*
X143175481Y-91402353D01*
X139483405Y-87710277D01*
X139449379Y-87647965D01*
X139446500Y-87621182D01*
X139446500Y-86442000D01*
X139466502Y-86373879D01*
X139520158Y-86327386D01*
X139572500Y-86316000D01*
X141139169Y-86316000D01*
X141207290Y-86336002D01*
X141214665Y-86341123D01*
X141316483Y-86417342D01*
X141452408Y-86468040D01*
X141512495Y-86474500D01*
X142559004Y-86474499D01*
X142619092Y-86468040D01*
X142755017Y-86417342D01*
X142856823Y-86341131D01*
X142923343Y-86316321D01*
X142932331Y-86316000D01*
X144149169Y-86316000D01*
X144217290Y-86336002D01*
X144224665Y-86341123D01*
X144326483Y-86417342D01*
X144462408Y-86468040D01*
X144522495Y-86474500D01*
X145569004Y-86474499D01*
X145599680Y-86471201D01*
X145669546Y-86483806D01*
X145721508Y-86532184D01*
X145739067Y-86600975D01*
X145716647Y-86668339D01*
X145702243Y-86685574D01*
X145606291Y-86781526D01*
X145606286Y-86781532D01*
X145533289Y-86907966D01*
X145524438Y-86940999D01*
X145495500Y-87048999D01*
X145495500Y-87195001D01*
X145499111Y-87208477D01*
X145533289Y-87336033D01*
X145606286Y-87462467D01*
X145606294Y-87462477D01*
X145709522Y-87565705D01*
X145709527Y-87565709D01*
X145709529Y-87565711D01*
X145709530Y-87565712D01*
X145709532Y-87565713D01*
X145835966Y-87638710D01*
X145835968Y-87638710D01*
X145835971Y-87638712D01*
X145976999Y-87676500D01*
X145977001Y-87676500D01*
X146122999Y-87676500D01*
X146123001Y-87676500D01*
X146264029Y-87638712D01*
X146264032Y-87638710D01*
X146264033Y-87638710D01*
X146370930Y-87576993D01*
X146390471Y-87565711D01*
X146390477Y-87565705D01*
X146415778Y-87540405D01*
X146478090Y-87506379D01*
X146504873Y-87503500D01*
X156335420Y-87503500D01*
X156403541Y-87523502D01*
X156450034Y-87577158D01*
X156451946Y-87582480D01*
X156452130Y-87582405D01*
X156455288Y-87590030D01*
X156528286Y-87716467D01*
X156528294Y-87716477D01*
X156631522Y-87819705D01*
X156631527Y-87819709D01*
X156631529Y-87819711D01*
X156631530Y-87819712D01*
X156631532Y-87819713D01*
X156757966Y-87892710D01*
X156757968Y-87892710D01*
X156757971Y-87892712D01*
X156898999Y-87930500D01*
X156899001Y-87930500D01*
X157044999Y-87930500D01*
X157045001Y-87930500D01*
X157186029Y-87892712D01*
X157186032Y-87892710D01*
X157186033Y-87892710D01*
X157249250Y-87856211D01*
X157312471Y-87819711D01*
X157415711Y-87716471D01*
X157462957Y-87634638D01*
X157488710Y-87590033D01*
X157488711Y-87590030D01*
X157488712Y-87590029D01*
X157526500Y-87449001D01*
X157526500Y-87302999D01*
X157488712Y-87161971D01*
X157488710Y-87161968D01*
X157488710Y-87161966D01*
X157415713Y-87035532D01*
X157415705Y-87035522D01*
X157312477Y-86932294D01*
X157312467Y-86932286D01*
X157186033Y-86859289D01*
X157152563Y-86850321D01*
X157045001Y-86821500D01*
X157044999Y-86821500D01*
X156994280Y-86821500D01*
X156931281Y-86804619D01*
X156920370Y-86798320D01*
X156865254Y-86766499D01*
X156768225Y-86740500D01*
X156768223Y-86740500D01*
X146504873Y-86740500D01*
X146436752Y-86720498D01*
X146436558Y-86720373D01*
X146425273Y-86713091D01*
X146390471Y-86678289D01*
X146264029Y-86605288D01*
X146254066Y-86602618D01*
X146238188Y-86592373D01*
X146222134Y-86573777D01*
X146203007Y-86558365D01*
X146199353Y-86547389D01*
X146191793Y-86538632D01*
X146188342Y-86514311D01*
X146180583Y-86491003D01*
X146183444Y-86479791D01*
X146181819Y-86468339D01*
X146192063Y-86446015D01*
X146198138Y-86422211D01*
X146206605Y-86414327D01*
X146211430Y-86403813D01*
X146232118Y-86390570D01*
X146250098Y-86373830D01*
X146263059Y-86370766D01*
X146271227Y-86365539D01*
X146285073Y-86365564D01*
X146306503Y-86360500D01*
X149601083Y-86360500D01*
X149637671Y-86367777D01*
X149637994Y-86366574D01*
X149645969Y-86368710D01*
X149645971Y-86368712D01*
X149786999Y-86406500D01*
X149787001Y-86406500D01*
X149932999Y-86406500D01*
X149933001Y-86406500D01*
X150074029Y-86368712D01*
X150074032Y-86368710D01*
X150074033Y-86368710D01*
X150169659Y-86313500D01*
X150200471Y-86295711D01*
X150303711Y-86192471D01*
X150364549Y-86087096D01*
X150376710Y-86066033D01*
X150376710Y-86066032D01*
X150376712Y-86066029D01*
X150414500Y-85925001D01*
X150414500Y-85778999D01*
X150376712Y-85637971D01*
X150376710Y-85637968D01*
X150376710Y-85637966D01*
X150303713Y-85511532D01*
X150303705Y-85511522D01*
X150200477Y-85408294D01*
X150200467Y-85408286D01*
X150074033Y-85335289D01*
X150057372Y-85330824D01*
X149933001Y-85297500D01*
X149786999Y-85297500D01*
X149645971Y-85335288D01*
X149645969Y-85335289D01*
X149637994Y-85337426D01*
X149637671Y-85336222D01*
X149601083Y-85343500D01*
X146099500Y-85343500D01*
X146031379Y-85323498D01*
X145984886Y-85269842D01*
X145981445Y-85261533D01*
X145968092Y-85225733D01*
X145928617Y-85173000D01*
X145881154Y-85109596D01*
X145765017Y-85022658D01*
X145754659Y-85018794D01*
X145697825Y-84976247D01*
X145673015Y-84909727D01*
X145688107Y-84840353D01*
X145738310Y-84790152D01*
X145759062Y-84781135D01*
X145839871Y-84754357D01*
X145989094Y-84662316D01*
X145989100Y-84662311D01*
X146015705Y-84635707D01*
X146113061Y-84538350D01*
X146113066Y-84538344D01*
X146205107Y-84389122D01*
X146260256Y-84222691D01*
X146270749Y-84119987D01*
X146270750Y-84119987D01*
X146270750Y-84070000D01*
X143820751Y-84070000D01*
X143820751Y-84119978D01*
X143831243Y-84222691D01*
X143886392Y-84389122D01*
X143978433Y-84538344D01*
X143978438Y-84538350D01*
X144102399Y-84662311D01*
X144102405Y-84662316D01*
X144251631Y-84754359D01*
X144332438Y-84781136D01*
X144390809Y-84821549D01*
X144418065Y-84887106D01*
X144405552Y-84956991D01*
X144357242Y-85009017D01*
X144336841Y-85018794D01*
X144326484Y-85022657D01*
X144210346Y-85109596D01*
X144123404Y-85225738D01*
X144119225Y-85233391D01*
X144069021Y-85283591D01*
X144008641Y-85299000D01*
X143072859Y-85299000D01*
X143004738Y-85278998D01*
X142962275Y-85233391D01*
X142958095Y-85225738D01*
X142958092Y-85225734D01*
X142958092Y-85225733D01*
X142871154Y-85109596D01*
X142755017Y-85022658D01*
X142744659Y-85018794D01*
X142687825Y-84976247D01*
X142663015Y-84909727D01*
X142678107Y-84840353D01*
X142728310Y-84790152D01*
X142749062Y-84781135D01*
X142829871Y-84754357D01*
X142979094Y-84662316D01*
X142979100Y-84662311D01*
X143103061Y-84538350D01*
X143103066Y-84538344D01*
X143195107Y-84389122D01*
X143250256Y-84222691D01*
X143260749Y-84119987D01*
X143260750Y-84119987D01*
X143260750Y-84070000D01*
X140810751Y-84070000D01*
X140810751Y-84119978D01*
X140821243Y-84222691D01*
X140876392Y-84389122D01*
X140968433Y-84538344D01*
X140968438Y-84538350D01*
X141092399Y-84662311D01*
X141092405Y-84662316D01*
X141241631Y-84754359D01*
X141322438Y-84781136D01*
X141380809Y-84821549D01*
X141408065Y-84887106D01*
X141395552Y-84956991D01*
X141347242Y-85009017D01*
X141326841Y-85018794D01*
X141316484Y-85022657D01*
X141200346Y-85109596D01*
X141113404Y-85225738D01*
X141109225Y-85233391D01*
X141059021Y-85283591D01*
X140998641Y-85299000D01*
X139572500Y-85299000D01*
X139504379Y-85278998D01*
X139457886Y-85225342D01*
X139446500Y-85173000D01*
X139446500Y-83520012D01*
X140810750Y-83520012D01*
X140810750Y-83570000D01*
X141785750Y-83570000D01*
X142285750Y-83570000D01*
X143260749Y-83570000D01*
X143260749Y-83520021D01*
X143260748Y-83520012D01*
X143820750Y-83520012D01*
X143820750Y-83570000D01*
X144795750Y-83570000D01*
X145295750Y-83570000D01*
X146270749Y-83570000D01*
X146270749Y-83520021D01*
X146260256Y-83417308D01*
X146205107Y-83250877D01*
X146113066Y-83101655D01*
X146113061Y-83101649D01*
X145989100Y-82977688D01*
X145989094Y-82977683D01*
X145839872Y-82885642D01*
X145673441Y-82830493D01*
X145570737Y-82820000D01*
X145295750Y-82820000D01*
X145295750Y-83570000D01*
X144795750Y-83570000D01*
X144795750Y-82820000D01*
X144520771Y-82820000D01*
X144418058Y-82830493D01*
X144251627Y-82885642D01*
X144102405Y-82977683D01*
X144102399Y-82977688D01*
X143978438Y-83101649D01*
X143978433Y-83101655D01*
X143886392Y-83250877D01*
X143831243Y-83417308D01*
X143820750Y-83520012D01*
X143260748Y-83520012D01*
X143250256Y-83417308D01*
X143195107Y-83250877D01*
X143103066Y-83101655D01*
X143103061Y-83101649D01*
X142979100Y-82977688D01*
X142979094Y-82977683D01*
X142829872Y-82885642D01*
X142663441Y-82830493D01*
X142560737Y-82820000D01*
X142285750Y-82820000D01*
X142285750Y-83570000D01*
X141785750Y-83570000D01*
X141785750Y-82820000D01*
X141510771Y-82820000D01*
X141408058Y-82830493D01*
X141241627Y-82885642D01*
X141092405Y-82977683D01*
X141092399Y-82977688D01*
X140968438Y-83101649D01*
X140968433Y-83101655D01*
X140876392Y-83250877D01*
X140821243Y-83417308D01*
X140810750Y-83520012D01*
X139446500Y-83520012D01*
X139446500Y-80706500D01*
X139455283Y-80676586D01*
X139461911Y-80646117D01*
X139465726Y-80641019D01*
X139466502Y-80638379D01*
X139483399Y-80617409D01*
X139507391Y-80593418D01*
X139569699Y-80559394D01*
X139640515Y-80564457D01*
X139685578Y-80593417D01*
X140169437Y-81077276D01*
X140169438Y-81077277D01*
X140169440Y-81077278D01*
X140256426Y-81127500D01*
X140256428Y-81127500D01*
X140256431Y-81127502D01*
X140353459Y-81153500D01*
X141112487Y-81153500D01*
X141175485Y-81170380D01*
X141268746Y-81224224D01*
X141409774Y-81262012D01*
X141409776Y-81262012D01*
X141555774Y-81262012D01*
X141555776Y-81262012D01*
X141696804Y-81224224D01*
X141696807Y-81224222D01*
X141696808Y-81224222D01*
X141819302Y-81153500D01*
X141823246Y-81151223D01*
X141926486Y-81047983D01*
X141999487Y-80921541D01*
X142037275Y-80780513D01*
X142037275Y-80634511D01*
X141999487Y-80493483D01*
X141999485Y-80493480D01*
X141999485Y-80493478D01*
X141926488Y-80367044D01*
X141926480Y-80367034D01*
X141823252Y-80263806D01*
X141823242Y-80263798D01*
X141696808Y-80190801D01*
X141680147Y-80186336D01*
X141555776Y-80153012D01*
X141409774Y-80153012D01*
X141323461Y-80176139D01*
X141268741Y-80190801D01*
X141142307Y-80263798D01*
X141142297Y-80263806D01*
X141052509Y-80353595D01*
X140990197Y-80387621D01*
X140963414Y-80390500D01*
X140613897Y-80390500D01*
X140545776Y-80370498D01*
X140524802Y-80353595D01*
X140303155Y-80131948D01*
X140269129Y-80069636D01*
X140274194Y-79998821D01*
X140292291Y-79966144D01*
X140295871Y-79961477D01*
X140295878Y-79961471D01*
X140368879Y-79835029D01*
X140406667Y-79694001D01*
X140406667Y-79547999D01*
X140368879Y-79406971D01*
X140368877Y-79406968D01*
X140368877Y-79406966D01*
X140295880Y-79280532D01*
X140295872Y-79280522D01*
X140192644Y-79177294D01*
X140192634Y-79177286D01*
X140066197Y-79104288D01*
X139960267Y-79075903D01*
X139903784Y-79043292D01*
X135957018Y-75096526D01*
X135942404Y-75081912D01*
X135942403Y-75081911D01*
X135840931Y-75023326D01*
X135784341Y-75008163D01*
X135772229Y-75004917D01*
X135772224Y-75004915D01*
X135727756Y-74993000D01*
X135727753Y-74993000D01*
X135727752Y-74993000D01*
X131181999Y-74993000D01*
X131118999Y-74976119D01*
X131024033Y-74921290D01*
X131024030Y-74921289D01*
X131024029Y-74921288D01*
X131024027Y-74921287D01*
X131024026Y-74921287D01*
X130986236Y-74911161D01*
X130883001Y-74883500D01*
X130736999Y-74883500D01*
X130650686Y-74906627D01*
X130595966Y-74921289D01*
X130469532Y-74994286D01*
X130469522Y-74994294D01*
X130366294Y-75097522D01*
X130366286Y-75097532D01*
X130293289Y-75223966D01*
X130293288Y-75223971D01*
X130255500Y-75364999D01*
X114800500Y-75364999D01*
X114800500Y-66915180D01*
X125104521Y-66915180D01*
X125104521Y-67061182D01*
X125137845Y-67185553D01*
X125142310Y-67202214D01*
X125215307Y-67328648D01*
X125215315Y-67328658D01*
X125318543Y-67431886D01*
X125318548Y-67431890D01*
X125318550Y-67431892D01*
X125318551Y-67431893D01*
X125318553Y-67431894D01*
X125444987Y-67504891D01*
X125444989Y-67504891D01*
X125444992Y-67504893D01*
X125586020Y-67542681D01*
X125621807Y-67542681D01*
X125689928Y-67562683D01*
X125710902Y-67579585D01*
X126327595Y-68196277D01*
X126361620Y-68258590D01*
X126364500Y-68285373D01*
X126364500Y-69903127D01*
X126344498Y-69971248D01*
X126327595Y-69992222D01*
X126302294Y-70017522D01*
X126302286Y-70017532D01*
X126229289Y-70143966D01*
X126229288Y-70143971D01*
X126191500Y-70284999D01*
X126191500Y-70431001D01*
X126224824Y-70555372D01*
X126229289Y-70572033D01*
X126302286Y-70698467D01*
X126302294Y-70698477D01*
X126405522Y-70801705D01*
X126405527Y-70801709D01*
X126405529Y-70801711D01*
X126405530Y-70801712D01*
X126405532Y-70801713D01*
X126531966Y-70874710D01*
X126531968Y-70874710D01*
X126531971Y-70874712D01*
X126672999Y-70912500D01*
X126673001Y-70912500D01*
X126818999Y-70912500D01*
X126819001Y-70912500D01*
X126960029Y-70874712D01*
X126960032Y-70874710D01*
X126960033Y-70874710D01*
X127023250Y-70838211D01*
X127086471Y-70801711D01*
X127189711Y-70698471D01*
X127262712Y-70572029D01*
X127300500Y-70431001D01*
X127300500Y-70284999D01*
X127262712Y-70143971D01*
X127262710Y-70143968D01*
X127262710Y-70143966D01*
X127189713Y-70017532D01*
X127189705Y-70017522D01*
X127164405Y-69992222D01*
X127130379Y-69929910D01*
X127127500Y-69903127D01*
X127127500Y-68024936D01*
X127127500Y-68024935D01*
X127101501Y-67927906D01*
X127101499Y-67927903D01*
X127101499Y-67927901D01*
X127051278Y-67840916D01*
X127051270Y-67840906D01*
X126975863Y-67765499D01*
X126975840Y-67765478D01*
X126250425Y-67040062D01*
X126216400Y-66977750D01*
X126213521Y-66950967D01*
X126213521Y-66915181D01*
X126213521Y-66915180D01*
X126175733Y-66774152D01*
X126175731Y-66774149D01*
X126175731Y-66774147D01*
X126102734Y-66647713D01*
X126102726Y-66647703D01*
X125999498Y-66544475D01*
X125999488Y-66544467D01*
X125873054Y-66471470D01*
X125856393Y-66467005D01*
X125732022Y-66433681D01*
X125586020Y-66433681D01*
X125499707Y-66456808D01*
X125444987Y-66471470D01*
X125318553Y-66544467D01*
X125318543Y-66544475D01*
X125215315Y-66647703D01*
X125215307Y-66647713D01*
X125142310Y-66774147D01*
X125142309Y-66774152D01*
X125104521Y-66915180D01*
X114800500Y-66915180D01*
X114800500Y-54822478D01*
X140780001Y-54822478D01*
X140790493Y-54925191D01*
X140845642Y-55091622D01*
X140937683Y-55240844D01*
X140937688Y-55240850D01*
X141061649Y-55364811D01*
X141061655Y-55364816D01*
X141210877Y-55456857D01*
X141377308Y-55512006D01*
X141480012Y-55522499D01*
X141705000Y-55522499D01*
X142205000Y-55522499D01*
X142429978Y-55522499D01*
X142532691Y-55512006D01*
X142699122Y-55456857D01*
X142848344Y-55364816D01*
X142848350Y-55364811D01*
X142972311Y-55240850D01*
X142972316Y-55240844D01*
X143064357Y-55091622D01*
X143119506Y-54925191D01*
X143129999Y-54822487D01*
X143130000Y-54822487D01*
X143130000Y-54822478D01*
X146430001Y-54822478D01*
X146440493Y-54925191D01*
X146495642Y-55091622D01*
X146587683Y-55240844D01*
X146587688Y-55240850D01*
X146711649Y-55364811D01*
X146711655Y-55364816D01*
X146860877Y-55456857D01*
X147027308Y-55512006D01*
X147130012Y-55522499D01*
X147355000Y-55522499D01*
X147855000Y-55522499D01*
X148079978Y-55522499D01*
X148182691Y-55512006D01*
X148349122Y-55456857D01*
X148498344Y-55364816D01*
X148498350Y-55364811D01*
X148622311Y-55240850D01*
X148622316Y-55240844D01*
X148714357Y-55091622D01*
X148769506Y-54925191D01*
X148779999Y-54822487D01*
X148780000Y-54822487D01*
X148780000Y-53422500D01*
X147855000Y-53422500D01*
X147855000Y-55522499D01*
X147355000Y-55522499D01*
X147355000Y-53422500D01*
X146430001Y-53422500D01*
X146430001Y-54822478D01*
X143130000Y-54822478D01*
X143130000Y-53422500D01*
X142205000Y-53422500D01*
X142205000Y-55522499D01*
X141705000Y-55522499D01*
X141705000Y-53422500D01*
X140780001Y-53422500D01*
X140780001Y-54822478D01*
X114800500Y-54822478D01*
X114800500Y-51426500D01*
X114820502Y-51358379D01*
X114874158Y-51311886D01*
X114926500Y-51300500D01*
X140663154Y-51300500D01*
X140678102Y-51304889D01*
G37*
%TD.AperFunction*%
%TD*%
M02*
