M48
; DRILL file {KiCad 9.0.0} date 2025-10-06T21:58:34+0200
; FORMAT={-:-/ absolute / metric / decimal}
; #@! TF.CreationDate,2025-10-06T21:58:34+02:00
; #@! TF.GenerationSoftware,Kicad,Pcbnew,9.0.0
; #@! TF.FileFunction,Plated,1,2,PTH
FMAT,2
METRIC
; #@! TA.AperFunction,Plated,PTH,ViaDrill
T1C0.300
; #@! TA.AperFunction,Plated,PTH,ComponentDrill
T2C1.000
%
G90
G05
T1
X122.682Y-93.98
X125.659Y-66.988
X126.746Y-70.358
X127.0Y-93.98
X130.302Y-84.328
X130.556Y-68.834
X130.81Y-62.992
X130.81Y-75.438
X131.318Y-77.216
X132.08Y-86.868
X133.096Y-87.122
X133.096Y-94.234
X133.35Y-82.296
X133.592Y-85.967
X133.604Y-84.713
X134.366Y-77.978
X135.382Y-88.9
X136.144Y-60.198
X136.579Y-85.525
X137.922Y-75.692
X137.922Y-78.74
X138.428Y-79.718
X139.446Y-93.98
X139.7Y-73.66
X139.7Y-90.932
X139.852Y-79.621
X140.208Y-82.296
X140.208Y-84.836
X140.266Y-90.366
X141.224Y-67.31
X141.483Y-80.708
X142.999Y-91.945
X143.256Y-59.436
X143.764Y-72.644
X144.018Y-76.962
X144.018Y-87.884
X144.272Y-64.516
X145.288Y-94.234
X145.796Y-59.944
X146.05Y-82.296
X146.05Y-87.122
X148.59Y-74.676
X148.59Y-78.994
X149.86Y-65.278
X149.86Y-85.852
X151.13Y-76.962
X151.384Y-93.218
X151.638Y-59.182
X151.765Y-91.567
X151.892Y-71.882
X152.908Y-68.072
X154.178Y-73.66
X156.972Y-62.992
X156.972Y-87.376
X157.48Y-88.9
X159.258Y-70.104
X170.688Y-93.98
T2
X118.364Y-82.804
X118.364Y-85.344
X118.364Y-87.884
X198.374Y-82.296
X198.374Y-84.836
X198.374Y-87.376
X198.374Y-89.916
X198.374Y-92.456
X198.374Y-94.996
X198.374Y-97.536
X198.374Y-100.076
X198.374Y-102.616
X198.374Y-105.156
X198.374Y-107.696
X198.374Y-110.236
X198.374Y-112.776
X198.374Y-115.316
X198.374Y-117.856
X198.374Y-120.396
X198.374Y-122.936
X200.914Y-82.296
X200.914Y-84.836
X200.914Y-87.376
X200.914Y-89.916
X200.914Y-92.456
X200.914Y-94.996
X200.914Y-97.536
X200.914Y-100.076
X200.914Y-102.616
X200.914Y-105.156
X200.914Y-107.696
X200.914Y-110.236
X200.914Y-112.776
X200.914Y-115.316
X200.914Y-117.856
X200.914Y-120.396
X200.914Y-122.936
M30
