%TF.GenerationSoftware,KiCad,Pcbnew,9.0.0*%
%TF.CreationDate,2025-10-06T17:29:32+02:00*%
%TF.ProjectId,stm32_radio,73746d33-325f-4726-9164-696f2e6b6963,rev?*%
%TF.SameCoordinates,Original*%
%TF.FileFunction,Soldermask,Bot*%
%TF.FilePolarity,Negative*%
%FSLAX46Y46*%
G04 Gerber Fmt 4.6, Leading zero omitted, Abs format (unit mm)*
G04 Created by KiCad (PCBNEW 9.0.0) date 2025-10-06 17:29:32*
%MOMM*%
%LPD*%
G01*
G04 APERTURE LIST*
G04 Aperture macros list*
%AMRoundRect*
0 Rectangle with rounded corners*
0 $1 Rounding radius*
0 $2 $3 $4 $5 $6 $7 $8 $9 X,Y pos of 4 corners*
0 Add a 4 corners polygon primitive as box body*
4,1,4,$2,$3,$4,$5,$6,$7,$8,$9,$2,$3,0*
0 Add four circle primitives for the rounded corners*
1,1,$1+$1,$2,$3*
1,1,$1+$1,$4,$5*
1,1,$1+$1,$6,$7*
1,1,$1+$1,$8,$9*
0 Add four rect primitives between the rounded corners*
20,1,$1+$1,$2,$3,$4,$5,0*
20,1,$1+$1,$4,$5,$6,$7,0*
20,1,$1+$1,$6,$7,$8,$9,0*
20,1,$1+$1,$8,$9,$2,$3,0*%
G04 Aperture macros list end*
%ADD10R,1.700000X1.700000*%
%ADD11O,1.700000X1.700000*%
%ADD12RoundRect,0.250000X-0.600000X-0.600000X0.600000X-0.600000X0.600000X0.600000X-0.600000X0.600000X0*%
%ADD13C,1.700000*%
%ADD14RoundRect,0.250000X0.425000X1.600000X-0.425000X1.600000X-0.425000X-1.600000X0.425000X-1.600000X0*%
%ADD15RoundRect,0.250000X0.475000X-0.250000X0.475000X0.250000X-0.475000X0.250000X-0.475000X-0.250000X0*%
G04 APERTURE END LIST*
D10*
%TO.C,J3*%
X118364000Y-87884000D03*
D11*
X118364000Y-85344000D03*
X118364000Y-82804000D03*
%TD*%
D12*
%TO.C,B1*%
X198374000Y-82296000D03*
D13*
X200914000Y-82296000D03*
X198374000Y-84836000D03*
X200914000Y-84836000D03*
X198374000Y-87376000D03*
X200914000Y-87376000D03*
X198374000Y-89916000D03*
X200914000Y-89916000D03*
X198374000Y-92456000D03*
X200914000Y-92456000D03*
X198374000Y-94996000D03*
X200914000Y-94996000D03*
X198374000Y-97536000D03*
X200914000Y-97536000D03*
X198374000Y-100076000D03*
X200914000Y-100076000D03*
X198374000Y-102616000D03*
X200914000Y-102616000D03*
X198374000Y-105156000D03*
X200914000Y-105156000D03*
X198374000Y-107696000D03*
X200914000Y-107696000D03*
X198374000Y-110236000D03*
X200914000Y-110236000D03*
X198374000Y-112776000D03*
X200914000Y-112776000D03*
X198374000Y-115316000D03*
X200914000Y-115316000D03*
X198374000Y-117856000D03*
X200914000Y-117856000D03*
X198374000Y-120396000D03*
X200914000Y-120396000D03*
X198374000Y-122936000D03*
X200914000Y-122936000D03*
%TD*%
D14*
%TO.C,J2*%
X141955000Y-53172500D03*
X147605000Y-53172500D03*
%TD*%
D15*
%TO.C,C3*%
X145045750Y-85720000D03*
X145045750Y-83820000D03*
%TD*%
%TO.C,C2*%
X148055750Y-85720000D03*
X148055750Y-83820000D03*
%TD*%
%TO.C,C4*%
X142035750Y-85720000D03*
X142035750Y-83820000D03*
%TD*%
M02*
